{"glyphs":{"0":{"ha":936,"x_min":76,"x_max":860,"o":"m 468 21 q 269 89 349 21 q 154 263 190 157 q 118 486 118 369 q 154 709 118 603 q 269 883 190 815 q 468 951 349 951 q 667 883 588 951 q 782 709 746 815 q 818 486 818 603 q 782 263 818 369 q 667 89 746 157 q 468 21 588 21 m 468 989 q 246 915 333 989 q 117 726 158 842 q 76 486 76 611 q 117 246 76 361 q 246 57 158 131 q 468 -17 333 -17 q 690 57 603 -17 q 819 246 778 131 q 860 486 860 361 q 819 726 860 611 q 690 915 778 842 q 468 989 603 989 "},"1":{"ha":407,"x_min":35,"x_max":296,"o":"m 254 972 l 296 972 l 296 0 l 254 0 l 254 625 q 267 783 254 699 l 254 783 q 203 708 233 742 q 130 654 172 675 q 35 628 88 633 l 35 665 q 199 769 144 679 q 254 972 254 860 "},"2":{"ha":743,"x_min":56,"x_max":681,"o":"m 275 38 l 681 38 l 681 0 l 56 0 l 56 43 q 546 485 301 264 q 572 511 546 485 q 620 597 606 551 q 635 689 635 642 q 607 815 635 756 q 519 913 579 875 q 368 951 460 951 q 217 913 276 951 q 129 815 157 875 q 101 689 101 756 q 103 657 101 668 l 61 657 q 60 689 60 668 q 92 833 60 764 q 193 945 124 901 q 368 989 263 989 q 543 945 474 989 q 644 833 613 901 q 676 689 676 764 q 653 565 676 625 q 586 465 629 504 q 111 38 349 251 l 111 24 q 275 38 199 38 "},"3":{"ha":753,"x_min":49,"x_max":690,"o":"m 690 279 q 643 111 690 178 q 523 14 596 44 q 369 -17 450 -17 q 216 14 289 -17 q 96 111 143 44 q 49 279 49 178 q 49 292 49 286 l 90 292 q 90 279 90 286 q 131 132 90 190 q 236 47 172 74 q 369 21 300 21 q 503 47 439 21 q 608 132 567 74 q 649 279 649 190 q 608 426 649 368 q 503 513 567 485 q 369 540 439 540 l 265 540 l 265 578 l 626 935 l 96 935 l 96 972 l 672 972 l 672 922 l 325 578 l 325 561 q 365 569 325 564 q 438 571 406 575 q 559 526 501 561 q 653 428 617 490 q 690 279 690 365 "},"4":{"ha":815,"x_min":56,"x_max":753,"o":"m 585 935 l 597 935 l 597 239 q 439 253 514 253 l 88 253 l 585 935 m 753 215 l 753 253 l 639 253 l 639 972 l 560 972 l 56 278 l 56 215 l 597 215 l 597 0 l 639 0 l 639 215 l 753 215 "},"5":{"ha":806,"x_min":63,"x_max":750,"o":"m 750 338 q 714 168 750 249 q 600 35 678 88 q 404 -17 522 -17 q 222 26 296 -17 q 110 139 149 69 q 63 290 71 208 l 104 290 q 147 158 113 219 q 246 59 181 97 q 404 21 311 21 q 576 67 508 21 q 676 186 644 114 q 708 338 708 258 q 676 490 708 417 q 576 610 644 563 q 404 657 508 657 q 260 626 321 657 q 161 540 199 594 l 118 540 l 172 972 l 672 972 l 672 935 l 210 935 l 185 733 q 172 659 181 700 q 153 583 163 618 l 165 583 q 269 663 208 633 q 408 694 329 693 q 602 642 525 696 q 715 507 679 589 q 750 338 750 425 "},"6":{"ha":850,"x_min":63,"x_max":788,"o":"m 442 21 q 269 67 338 21 q 169 186 201 114 q 138 338 138 258 q 169 490 138 417 q 269 609 201 563 q 442 656 338 656 q 614 609 546 656 q 714 490 682 563 q 746 338 746 417 q 714 186 746 258 q 614 67 682 114 q 442 21 546 21 m 451 693 q 283 651 361 693 q 159 532 206 610 q 113 353 113 454 l 99 353 q 117 665 83 529 q 227 876 150 800 q 417 951 304 951 q 585 892 517 951 q 689 731 653 832 l 733 731 q 665 865 707 807 q 560 956 622 922 q 417 989 497 989 q 216 915 296 989 q 99 726 136 842 q 63 486 63 611 q 119 178 63 289 q 263 25 176 67 q 451 -17 349 -17 q 619 25 542 -17 q 742 147 696 67 q 788 338 788 226 q 742 529 788 449 q 619 651 696 610 q 451 693 542 693 "},"7":{"ha":672,"x_min":14,"x_max":658,"o":"m 14 935 l 14 972 l 658 972 l 658 935 q 439 708 528 861 q 307 367 350 554 q 264 0 264 179 l 222 0 q 266 381 222 196 q 392 710 310 565 q 583 935 474 856 l 583 949 q 425 935 499 935 l 14 935 "},"8":{"ha":814,"x_min":63,"x_max":751,"o":"m 407 21 q 263 48 332 21 q 149 133 193 75 q 104 281 104 192 q 149 428 104 369 q 263 513 193 486 q 407 540 332 540 q 552 513 483 540 q 665 428 621 486 q 710 281 710 369 q 665 133 710 192 q 552 48 621 75 q 407 21 483 21 m 146 764 q 224 905 146 858 q 407 951 303 951 q 590 905 511 951 q 668 764 668 858 q 590 624 668 669 q 407 578 511 578 q 224 624 303 578 q 146 764 146 669 m 524 551 l 524 565 q 658 638 606 588 q 710 769 710 689 q 665 894 710 844 q 552 966 621 943 q 407 989 483 989 q 263 966 332 989 q 149 894 193 943 q 104 769 104 844 q 156 638 104 689 q 290 565 208 588 l 290 551 q 175 500 226 535 q 93 408 124 465 q 63 275 63 351 q 113 109 63 175 q 242 13 164 43 q 407 -17 321 -17 q 572 13 493 -17 q 701 109 650 43 q 751 275 751 175 q 721 408 751 351 q 639 500 690 465 q 524 551 588 535 "},"9":{"ha":850,"x_min":63,"x_max":788,"o":"m 408 951 q 581 905 513 951 q 681 786 649 858 q 713 635 713 714 q 681 483 713 556 q 581 363 649 410 q 408 317 513 317 q 236 363 304 317 q 136 483 168 410 q 104 635 104 556 q 136 786 104 714 q 236 905 168 858 q 408 951 304 951 m 399 279 q 567 321 489 279 q 691 440 644 363 q 738 619 738 518 l 751 619 q 733 308 767 443 q 623 97 700 172 q 433 21 546 21 q 265 81 333 21 q 161 242 197 140 l 117 242 q 185 108 143 165 q 290 17 228 50 q 433 -17 353 -17 q 634 57 554 -17 q 751 246 714 131 q 788 486 788 361 q 731 794 788 683 q 588 947 674 906 q 399 989 501 989 q 231 947 308 989 q 108 826 154 906 q 63 635 63 746 q 108 443 63 524 q 231 321 154 363 q 399 279 308 279 "}," ":{"ha":389,"x_min":0,"x_max":0,"o":""}," ":{"ha":389,"x_min":0,"x_max":0,"o":""},"A":{"ha":808,"x_min":14,"x_max":794,"o":"m 794 0 l 442 972 l 367 972 l 14 0 l 58 0 l 161 283 l 647 283 l 750 0 l 794 0 m 633 321 l 175 321 l 397 935 l 411 935 l 633 321 "},"Á":{"ha":808,"x_min":14,"x_max":794,"o":"m 794 0 l 442 972 l 367 972 l 14 0 l 58 0 l 161 283 l 647 283 l 750 0 l 794 0 m 633 321 l 175 321 l 397 935 l 411 935 l 633 321 m 433 1049 l 507 1194 l 465 1194 l 392 1049 l 433 1049 "},"Â":{"ha":808,"x_min":14,"x_max":794,"o":"m 794 0 l 442 972 l 367 972 l 14 0 l 58 0 l 161 283 l 647 283 l 750 0 l 794 0 m 633 321 l 175 321 l 397 935 l 411 935 l 633 321 m 535 1050 l 436 1194 l 374 1194 l 275 1050 l 325 1050 l 399 1157 l 411 1157 l 485 1050 l 535 1050 "},"Ä":{"ha":808,"x_min":14,"x_max":794,"o":"m 794 0 l 442 972 l 367 972 l 14 0 l 58 0 l 161 283 l 647 283 l 750 0 l 794 0 m 633 321 l 175 321 l 397 935 l 411 935 l 633 321 m 311 1125 q 335 1135 325 1125 q 346 1160 346 1146 q 335 1184 346 1174 q 311 1194 325 1194 q 285 1184 296 1194 q 275 1160 275 1174 q 285 1135 275 1146 q 311 1125 296 1125 m 499 1125 q 523 1135 513 1125 q 533 1160 533 1146 q 523 1184 533 1174 q 499 1194 513 1194 q 473 1184 483 1194 q 463 1160 463 1174 q 473 1135 463 1146 q 499 1125 483 1125 "},"Å":{"ha":808,"x_min":14,"x_max":794,"o":"m 794 0 l 442 972 l 367 972 l 14 0 l 58 0 l 161 283 l 647 283 l 750 0 l 794 0 m 633 321 l 175 321 l 397 935 l 411 935 l 633 321 m 404 1089 q 334 1119 357 1089 q 311 1189 311 1149 q 334 1258 311 1228 q 404 1288 357 1288 q 476 1258 453 1288 q 499 1189 499 1229 q 475 1119 499 1149 q 404 1089 451 1089 m 404 1325 q 303 1284 338 1325 q 269 1189 269 1243 q 283 1124 269 1154 q 328 1073 297 1093 q 404 1053 358 1053 q 506 1094 472 1053 q 540 1189 540 1135 q 526 1253 540 1222 q 481 1305 513 1285 q 404 1325 450 1325 "},"B":{"ha":836,"x_min":111,"x_max":774,"o":"m 436 38 l 153 38 l 153 506 l 436 506 q 577 481 510 506 q 688 405 644 457 q 732 272 732 353 q 688 139 732 192 q 577 62 644 86 q 436 38 510 38 m 436 543 l 153 543 l 153 935 l 436 935 q 610 887 536 935 q 685 740 685 839 q 610 592 685 640 q 436 543 536 543 m 774 268 q 744 385 774 332 q 666 474 715 439 q 557 521 617 508 l 557 535 q 640 572 600 543 q 703 645 679 600 q 726 744 726 690 q 683 875 726 824 q 573 949 639 926 q 436 972 507 972 l 111 972 l 111 0 l 436 0 q 592 28 514 0 q 722 116 669 56 q 774 268 774 176 "},"C":{"ha":950,"x_min":63,"x_max":894,"o":"m 847 264 l 851 274 l 894 274 l 893 269 q 812 122 864 186 q 680 21 760 58 q 494 -17 600 -17 q 249 58 346 -17 q 108 247 153 132 q 63 489 63 363 q 108 727 63 613 q 250 915 153 842 q 494 989 347 989 q 681 951 601 989 q 813 848 761 913 q 894 699 865 783 l 851 699 q 721 882 810 813 q 494 951 632 951 q 273 883 361 951 q 144 710 185 815 q 104 489 104 604 q 144 265 104 372 q 273 90 185 158 q 494 21 361 21 q 717 88 629 21 q 847 264 804 154 "},"Č":{"ha":950,"x_min":63,"x_max":894,"o":"m 847 264 l 851 274 l 894 274 l 893 269 q 812 122 864 186 q 680 21 760 58 q 494 -17 600 -17 q 249 58 346 -17 q 108 247 153 132 q 63 489 63 363 q 108 727 63 613 q 250 915 153 842 q 494 989 347 989 q 681 951 601 989 q 813 848 761 913 q 894 699 865 783 l 851 699 q 721 882 810 813 q 494 951 632 951 q 273 883 361 951 q 144 710 185 815 q 104 489 104 604 q 144 265 104 372 q 273 90 185 158 q 494 21 361 21 q 717 88 629 21 q 847 264 804 154 m 365 1194 l 464 1050 l 526 1050 l 625 1194 l 575 1194 l 501 1088 l 489 1088 l 415 1194 l 365 1194 "},"D":{"ha":938,"x_min":111,"x_max":875,"o":"m 454 38 l 153 38 l 153 935 l 454 935 q 669 869 583 935 q 794 700 754 803 q 833 486 833 597 q 794 272 833 375 q 669 103 754 169 q 454 38 583 38 m 875 486 q 819 748 875 638 q 668 915 764 858 q 454 972 572 972 l 111 972 l 111 0 l 454 0 q 671 58 575 0 q 821 226 767 117 q 875 486 875 336 "},"Ď":{"ha":938,"x_min":111,"x_max":875,"o":"m 454 38 l 153 38 l 153 935 l 454 935 q 669 869 583 935 q 794 700 754 803 q 833 486 833 597 q 794 272 833 375 q 669 103 754 169 q 454 38 583 38 m 875 486 q 819 748 875 638 q 668 915 764 858 q 454 972 572 972 l 111 972 l 111 0 l 454 0 q 671 58 575 0 q 821 226 767 117 q 875 486 875 336 m 281 1194 l 379 1050 l 442 1050 l 540 1194 l 490 1194 l 417 1088 l 404 1088 l 331 1194 l 281 1194 "},"E":{"ha":754,"x_min":111,"x_max":685,"o":"m 685 935 l 685 972 l 113 972 l 111 0 l 685 0 l 685 38 l 153 38 l 153 467 l 639 467 l 639 504 l 153 504 l 153 935 l 685 935 "},"É":{"ha":754,"x_min":111,"x_max":685,"o":"m 685 935 l 685 972 l 113 972 l 111 0 l 685 0 l 685 38 l 153 38 l 153 467 l 639 467 l 639 504 l 153 504 l 153 935 l 685 935 m 406 1049 l 479 1194 l 438 1194 l 364 1049 l 406 1049 "},"Ĕ":{"ha":754,"x_min":111,"x_max":685,"o":"m 685 935 l 685 972 l 113 972 l 111 0 l 685 0 l 685 38 l 153 38 l 153 467 l 639 467 l 639 504 l 153 504 l 153 935 l 685 935 m 542 1194 l 500 1194 q 474 1119 500 1151 q 393 1086 447 1086 q 314 1119 340 1086 q 288 1194 288 1151 l 246 1194 q 261 1126 246 1158 q 310 1072 276 1093 q 393 1050 343 1050 q 478 1072 444 1050 q 526 1126 511 1093 q 542 1194 542 1158 "},"Ě":{"ha":754,"x_min":111,"x_max":685,"o":"m 685 935 l 685 972 l 113 972 l 111 0 l 685 0 l 685 38 l 153 38 l 153 467 l 639 467 l 639 504 l 153 504 l 153 935 l 685 935 m 256 1194 l 354 1050 l 417 1050 l 515 1194 l 465 1194 l 392 1088 l 379 1088 l 306 1194 l 256 1194 "},"Ê":{"ha":754,"x_min":111,"x_max":685,"o":"m 685 935 l 685 972 l 113 972 l 111 0 l 685 0 l 685 38 l 153 38 l 153 467 l 639 467 l 639 504 l 153 504 l 153 935 l 685 935 m 528 1050 l 429 1194 l 367 1194 l 268 1050 l 318 1050 l 392 1157 l 404 1157 l 478 1050 l 528 1050 "},"Ë":{"ha":754,"x_min":111,"x_max":685,"o":"m 685 935 l 685 972 l 113 972 l 111 0 l 685 0 l 685 38 l 153 38 l 153 467 l 639 467 l 639 504 l 153 504 l 153 935 l 685 935 m 310 1125 q 334 1135 324 1125 q 344 1160 344 1146 q 334 1184 344 1174 q 310 1194 324 1194 q 284 1184 294 1194 q 274 1160 274 1174 q 284 1135 274 1146 q 310 1125 294 1125 m 497 1125 q 522 1135 511 1125 q 532 1160 532 1146 q 522 1184 532 1174 q 497 1194 511 1194 q 472 1184 482 1194 q 461 1160 461 1174 q 472 1135 461 1146 q 497 1125 482 1125 "},"F":{"ha":703,"x_min":111,"x_max":668,"o":"m 153 935 l 668 935 l 668 972 l 111 972 l 111 0 l 153 0 l 153 467 l 590 467 l 590 504 l 153 504 l 153 935 "},"G":{"ha":985,"x_min":63,"x_max":915,"o":"m 915 460 l 915 0 l 874 0 l 874 128 q 888 286 874 189 l 874 286 q 819 160 863 231 q 692 37 775 90 q 492 -17 610 -17 q 248 58 344 -17 q 107 247 151 132 q 63 486 63 361 q 108 727 63 613 q 254 915 154 842 q 507 989 354 989 q 697 951 615 989 q 833 847 779 913 q 915 699 886 782 l 874 699 q 738 882 829 813 q 507 951 647 951 q 278 883 368 951 q 146 709 188 815 q 104 486 104 603 q 145 265 104 371 q 274 91 186 160 q 497 21 363 22 q 706 87 621 22 q 832 251 790 151 q 874 454 874 350 q 869 465 874 461 q 858 469 865 469 l 489 469 l 489 507 l 868 507 q 903 494 890 507 q 915 460 915 481 "},"H":{"ha":919,"x_min":111,"x_max":808,"o":"m 808 0 l 808 972 l 767 972 l 767 506 l 153 506 l 153 972 l 111 972 l 111 0 l 153 0 l 153 468 l 767 468 l 767 0 l 808 0 "},"I":{"ha":264,"x_min":111,"x_max":153,"o":"m 153 972 l 111 972 l 111 0 l 153 0 l 153 972 "},"Í":{"ha":264,"x_min":111,"x_max":231,"o":"m 153 972 l 111 972 l 111 0 l 153 0 l 153 972 m 157 1049 l 231 1194 l 189 1194 l 115 1049 l 157 1049 "},"Ĭ":{"ha":264,"x_min":-17,"x_max":279,"o":"m 153 972 l 111 972 l 111 0 l 153 0 l 153 972 m 279 1194 l 238 1194 q 211 1119 238 1151 q 131 1086 185 1086 q 51 1119 78 1086 q 25 1194 25 1151 l -17 1194 q -1 1126 -17 1158 q 47 1072 14 1093 q 131 1050 81 1050 q 215 1072 182 1050 q 264 1126 249 1093 q 279 1194 279 1158 "},"Î":{"ha":264,"x_min":1,"x_max":261,"o":"m 153 972 l 111 972 l 111 0 l 153 0 l 153 972 m 261 1050 l 163 1194 l 100 1194 l 1 1050 l 51 1050 l 125 1157 l 138 1157 l 211 1050 l 261 1050 "},"Ï":{"ha":264,"x_min":1,"x_max":260,"o":"m 153 972 l 111 972 l 111 0 l 153 0 l 153 972 m 38 1125 q 62 1135 51 1125 q 72 1160 72 1146 q 62 1184 72 1174 q 38 1194 51 1194 q 12 1184 22 1194 q 1 1160 1 1174 q 12 1135 1 1146 q 38 1125 22 1125 m 225 1125 q 249 1135 239 1125 q 260 1160 260 1146 q 249 1184 260 1174 q 225 1194 239 1194 q 199 1184 210 1194 q 189 1160 189 1174 q 199 1135 189 1146 q 225 1125 210 1125 "},"İ":{"ha":264,"x_min":96,"x_max":167,"o":"m 153 972 l 111 972 l 111 0 l 153 0 l 153 972 m 132 1125 q 156 1135 146 1125 q 167 1160 167 1146 q 156 1184 167 1174 q 132 1194 146 1194 q 106 1184 117 1194 q 96 1160 96 1174 q 106 1135 96 1146 q 132 1125 117 1125 "},"Ì":{"ha":264,"x_min":33,"x_max":153,"o":"m 153 972 l 111 972 l 111 0 l 153 0 l 153 972 m 75 1194 l 33 1194 l 107 1049 l 149 1049 l 75 1194 "},"J":{"ha":496,"x_min":28,"x_max":385,"o":"m 100 935 l 100 972 l 385 972 l 385 328 q 340 163 385 239 q 221 44 296 88 q 57 0 146 0 l 28 0 l 28 38 l 57 38 q 200 76 135 38 q 304 182 265 115 q 343 328 343 249 l 343 935 l 100 935 "},"K":{"ha":754,"x_min":111,"x_max":726,"o":"m 233 493 l 726 972 l 667 972 l 186 504 l 153 504 l 153 972 l 111 972 l 111 0 l 153 0 l 153 467 l 186 467 l 667 0 l 726 0 l 233 479 l 233 493 "},"L":{"ha":667,"x_min":111,"x_max":639,"o":"m 153 38 l 153 972 l 111 972 l 111 0 l 639 0 l 639 38 l 153 38 "},"Ĺ":{"ha":667,"x_min":111,"x_max":639,"o":"m 153 38 l 153 972 l 111 972 l 111 0 l 639 0 l 639 38 l 153 38 m 153 1049 l 226 1194 l 185 1194 l 111 1049 l 153 1049 "},"Ľ":{"ha":667,"x_min":111,"x_max":639,"o":"m 153 38 l 153 972 l 111 972 l 111 0 l 639 0 l 639 38 l 153 38 m 353 642 l 358 972 l 317 972 l 324 642 l 353 642 "},"Ł":{"ha":694,"x_min":42,"x_max":667,"o":"m 181 38 l 181 972 l 139 972 l 139 0 l 667 0 l 667 38 l 181 38 m 442 590 l 42 386 l 42 344 l 442 549 l 442 590 "},"M":{"ha":1136,"x_min":111,"x_max":1025,"o":"m 575 38 l 953 972 l 1025 972 l 1025 0 l 983 0 l 983 776 q 996 935 983 851 l 982 935 l 604 0 l 532 0 l 154 935 l 140 935 q 149 858 146 900 q 153 776 153 815 l 153 0 l 111 0 l 111 972 l 183 972 l 561 38 l 575 38 "},"N":{"ha":939,"x_min":111,"x_max":828,"o":"m 786 194 l 786 972 l 828 972 l 828 0 l 761 0 l 153 935 l 142 935 q 153 776 153 853 l 153 0 l 111 0 l 111 972 l 178 972 l 786 38 l 797 38 q 786 194 786 121 "},"Ň":{"ha":939,"x_min":111,"x_max":828,"o":"m 786 194 l 786 972 l 828 972 l 828 0 l 761 0 l 153 935 l 142 935 q 153 776 153 853 l 153 0 l 111 0 l 111 972 l 178 972 l 786 38 l 797 38 q 786 194 786 121 m 349 1194 l 447 1050 l 510 1050 l 608 1194 l 558 1194 l 485 1088 l 472 1088 l 399 1194 l 349 1194 "},"O":{"ha":965,"x_min":63,"x_max":903,"o":"m 483 21 q 269 89 354 21 q 144 263 183 157 q 104 485 104 369 q 144 708 104 601 q 269 883 183 815 q 483 951 354 951 q 697 883 613 951 q 822 708 782 814 q 861 485 861 601 q 822 263 861 369 q 697 89 782 157 q 483 21 613 21 m 483 989 q 244 915 339 989 q 106 726 150 840 q 63 485 63 611 q 106 245 63 360 q 244 57 150 131 q 483 -17 339 -17 q 722 57 628 -17 q 859 245 815 131 q 903 485 903 360 q 860 726 903 611 q 722 915 817 840 q 483 989 628 989 "},"Ó":{"ha":965,"x_min":63,"x_max":903,"o":"m 483 21 q 269 89 354 21 q 144 263 183 157 q 104 485 104 369 q 144 708 104 601 q 269 883 183 815 q 483 951 354 951 q 697 883 613 951 q 822 708 782 814 q 861 485 861 601 q 822 263 861 369 q 697 89 782 157 q 483 21 613 21 m 483 989 q 244 915 339 989 q 106 726 150 840 q 63 485 63 611 q 106 245 63 360 q 244 57 150 131 q 483 -17 339 -17 q 722 57 628 -17 q 859 245 815 131 q 903 485 903 360 q 860 726 903 611 q 722 915 817 840 q 483 989 628 989 m 497 1049 l 571 1194 l 529 1194 l 456 1049 l 497 1049 "},"Ô":{"ha":965,"x_min":63,"x_max":903,"o":"m 483 21 q 269 89 354 21 q 144 263 183 157 q 104 485 104 369 q 144 708 104 601 q 269 883 183 815 q 483 951 354 951 q 697 883 613 951 q 822 708 782 814 q 861 485 861 601 q 822 263 861 369 q 697 89 782 157 q 483 21 613 21 m 483 989 q 244 915 339 989 q 106 726 150 840 q 63 485 63 611 q 106 245 63 360 q 244 57 150 131 q 483 -17 339 -17 q 722 57 628 -17 q 859 245 815 131 q 903 485 903 360 q 860 726 903 611 q 722 915 817 840 q 483 989 628 989 m 614 1051 l 515 1196 l 453 1196 l 354 1051 l 404 1051 l 478 1158 l 490 1158 l 564 1051 l 614 1051 "},"Ö":{"ha":965,"x_min":63,"x_max":903,"o":"m 483 21 q 269 89 354 21 q 144 263 183 157 q 104 485 104 369 q 144 708 104 601 q 269 883 183 815 q 483 951 354 951 q 697 883 613 951 q 822 708 782 814 q 861 485 861 601 q 822 263 861 369 q 697 89 782 157 q 483 21 613 21 m 483 989 q 244 915 339 989 q 106 726 150 840 q 63 485 63 611 q 106 245 63 360 q 244 57 150 131 q 483 -17 339 -17 q 722 57 628 -17 q 859 245 815 131 q 903 485 903 360 q 860 726 903 611 q 722 915 817 840 q 483 989 628 989 m 389 1125 q 413 1135 403 1125 q 424 1160 424 1146 q 413 1184 424 1174 q 389 1194 403 1194 q 363 1184 374 1194 q 353 1160 353 1174 q 363 1135 353 1146 q 389 1125 374 1125 m 576 1125 q 601 1135 590 1125 q 611 1160 611 1146 q 601 1184 611 1174 q 576 1194 590 1194 q 551 1184 561 1194 q 540 1160 540 1174 q 551 1135 540 1146 q 576 1125 561 1125 "},"Ő":{"ha":965,"x_min":63,"x_max":903,"o":"m 483 21 q 269 89 354 21 q 144 263 183 157 q 104 485 104 369 q 144 708 104 601 q 269 883 183 815 q 483 951 354 951 q 697 883 613 951 q 822 708 782 814 q 861 485 861 601 q 822 263 861 369 q 697 89 782 157 q 483 21 613 21 m 483 989 q 244 915 339 989 q 106 726 150 840 q 63 485 63 611 q 106 245 63 360 q 244 57 150 131 q 483 -17 339 -17 q 722 57 628 -17 q 859 245 815 131 q 903 485 903 360 q 860 726 903 611 q 722 915 817 840 q 483 989 628 989 "},"Ø":{"ha":965,"x_min":63,"x_max":903,"o":"m 483 21 q 269 89 354 21 q 144 263 183 157 q 104 485 104 369 q 144 708 104 601 q 269 883 183 815 q 483 951 354 951 q 697 883 613 951 q 822 708 782 814 q 861 485 861 601 q 822 263 861 369 q 697 89 782 157 q 483 21 613 21 m 483 989 q 244 915 339 989 q 106 726 150 840 q 63 485 63 611 q 106 245 63 360 q 244 57 150 131 q 483 -17 339 -17 q 722 57 628 -17 q 859 245 815 131 q 903 485 903 360 q 860 726 903 611 q 722 915 817 840 q 483 989 628 989 m 143 0 l 875 972 l 824 972 l 90 0 l 143 0 "},"Ǿ":{"ha":965,"x_min":63,"x_max":903,"o":"m 483 21 q 269 89 354 21 q 144 263 183 157 q 104 485 104 369 q 144 708 104 601 q 269 883 183 815 q 483 951 354 951 q 697 883 613 951 q 822 708 782 814 q 861 485 861 601 q 822 263 861 369 q 697 89 782 157 q 483 21 613 21 m 483 989 q 244 915 339 989 q 106 726 150 840 q 63 485 63 611 q 106 245 63 360 q 244 57 150 131 q 483 -17 339 -17 q 722 57 628 -17 q 859 245 815 131 q 903 485 903 360 q 860 726 903 611 q 722 915 817 840 q 483 989 628 989 m 143 0 l 875 972 l 824 972 l 90 0 l 143 0 m 503 1049 l 576 1194 l 535 1194 l 461 1049 l 503 1049 "},"P":{"ha":804,"x_min":111,"x_max":769,"o":"m 471 504 l 153 504 l 153 935 l 471 935 q 594 913 535 935 q 690 842 653 890 q 728 721 728 794 q 690 599 728 647 q 594 527 653 550 q 471 504 535 504 m 471 972 l 111 972 l 111 0 l 153 0 l 153 467 l 471 467 q 600 488 532 467 q 719 567 668 510 q 769 721 769 624 q 719 873 769 817 q 601 951 669 929 q 471 972 533 972 "},"Q":{"ha":944,"x_min":63,"x_max":889,"o":"m 104 494 q 143 713 104 608 q 265 884 182 817 q 476 951 349 951 q 688 884 604 951 q 809 713 771 817 q 847 494 847 608 q 802 280 847 386 q 672 106 757 174 q 476 38 588 38 q 265 105 349 38 q 143 276 182 172 q 104 494 104 381 m 614 24 l 614 39 q 769 149 707 76 q 860 312 831 222 q 889 494 889 401 q 846 731 889 618 q 710 917 803 844 q 476 989 618 989 q 242 917 335 989 q 106 731 149 844 q 63 494 63 618 q 106 258 63 371 q 242 72 149 144 q 476 0 335 0 l 889 0 l 889 38 l 774 38 q 692 33 735 38 q 614 24 649 29 "},"R":{"ha":863,"x_min":111,"x_max":772,"o":"m 472 503 l 153 503 l 153 935 l 472 935 q 595 913 536 935 q 692 842 654 890 q 731 719 731 793 q 692 597 731 646 q 595 526 654 549 q 472 503 536 503 m 642 503 l 642 517 l 643 517 q 701 558 675 536 q 749 624 726 581 q 772 726 772 667 q 738 851 772 796 q 635 940 703 907 q 472 972 568 972 l 111 972 l 111 0 l 153 0 l 153 465 l 642 465 q 701 440 676 465 q 726 381 726 415 q 726 0 726 190 l 768 0 l 768 376 q 751 439 768 410 q 704 485 733 468 q 642 503 675 503 "},"Ř":{"ha":863,"x_min":111,"x_max":772,"o":"m 472 503 l 153 503 l 153 935 l 472 935 q 595 913 536 935 q 692 842 654 890 q 731 719 731 793 q 692 597 731 646 q 595 526 654 549 q 472 503 536 503 m 642 503 l 642 517 l 643 517 q 701 558 675 536 q 749 624 726 581 q 772 726 772 667 q 738 851 772 796 q 635 940 703 907 q 472 972 568 972 l 111 972 l 111 0 l 153 0 l 153 465 l 642 465 q 701 440 676 465 q 726 381 726 415 q 726 0 726 190 l 768 0 l 768 376 q 751 439 768 410 q 704 485 733 468 q 642 503 675 503 m 272 1194 l 371 1050 l 433 1050 l 532 1194 l 482 1194 l 408 1088 l 396 1088 l 322 1194 l 272 1194 "},"S":{"ha":797,"x_min":49,"x_max":735,"o":"m 735 258 q 699 124 735 186 q 587 23 664 63 q 392 -17 510 -17 q 197 26 274 -17 q 84 134 119 68 q 49 272 49 200 l 90 272 q 122 152 90 210 q 222 58 153 94 q 393 21 290 21 q 563 55 496 21 q 662 143 631 89 q 693 258 693 197 q 656 368 693 325 q 563 435 619 411 q 429 476 506 460 q 381 486 406 482 l 358 490 q 216 526 274 506 q 117 594 158 546 q 75 729 75 643 q 108 853 75 794 q 214 951 142 913 q 397 989 286 989 q 583 951 510 989 q 690 853 657 913 q 724 729 724 794 l 724 713 l 682 713 l 682 729 q 653 835 682 785 q 560 919 624 886 q 397 951 496 951 q 238 919 301 951 q 146 835 175 886 q 117 729 117 785 q 152 617 117 658 q 236 560 188 576 q 357 529 285 543 l 379 525 l 382 525 q 560 480 489 504 q 683 402 631 456 q 735 258 735 349 "},"Š":{"ha":797,"x_min":49,"x_max":735,"o":"m 735 258 q 699 124 735 186 q 587 23 664 63 q 392 -17 510 -17 q 197 26 274 -17 q 84 134 119 68 q 49 272 49 200 l 90 272 q 122 152 90 210 q 222 58 153 94 q 393 21 290 21 q 563 55 496 21 q 662 143 631 89 q 693 258 693 197 q 656 368 693 325 q 563 435 619 411 q 429 476 506 460 q 381 486 406 482 l 358 490 q 216 526 274 506 q 117 594 158 546 q 75 729 75 643 q 108 853 75 794 q 214 951 142 913 q 397 989 286 989 q 583 951 510 989 q 690 853 657 913 q 724 729 724 794 l 724 713 l 682 713 l 682 729 q 653 835 682 785 q 560 919 624 886 q 397 951 496 951 q 238 919 301 951 q 146 835 175 886 q 117 729 117 785 q 152 617 117 658 q 236 560 188 576 q 357 529 285 543 l 379 525 l 382 525 q 560 480 489 504 q 683 402 631 456 q 735 258 735 349 m 260 1194 l 358 1050 l 421 1050 l 519 1194 l 469 1194 l 396 1088 l 383 1088 l 310 1194 l 260 1194 "},"T":{"ha":706,"x_min":14,"x_max":692,"o":"m 692 935 l 692 972 l 14 972 l 14 935 l 332 935 l 332 0 l 374 0 l 374 935 l 692 935 "},"Ť":{"ha":706,"x_min":14,"x_max":692,"o":"m 692 935 l 692 972 l 14 972 l 14 935 l 332 935 l 332 0 l 374 0 l 374 935 l 692 935 m 222 1194 l 321 1050 l 383 1050 l 482 1194 l 432 1194 l 358 1088 l 346 1088 l 272 1194 l 222 1194 "},"U":{"ha":903,"x_min":104,"x_max":799,"o":"m 757 386 l 757 972 l 799 972 l 799 386 q 766 203 799 296 q 655 47 733 111 q 451 -17 576 -17 q 249 48 326 -17 q 138 205 171 113 q 104 386 104 297 l 104 972 l 146 972 l 146 386 q 178 212 146 296 q 278 74 210 128 q 451 21 347 21 q 624 74 556 21 q 725 212 693 128 q 757 386 757 296 "},"Ú":{"ha":903,"x_min":104,"x_max":799,"o":"m 757 386 l 757 972 l 799 972 l 799 386 q 766 203 799 296 q 655 47 733 111 q 451 -17 576 -17 q 249 48 326 -17 q 138 205 171 113 q 104 386 104 297 l 104 972 l 146 972 l 146 386 q 178 212 146 296 q 278 74 210 128 q 451 21 347 21 q 624 74 556 21 q 725 212 693 128 q 757 386 757 296 m 457 1049 l 531 1194 l 489 1194 l 415 1049 l 457 1049 "},"Ü":{"ha":903,"x_min":104,"x_max":799,"o":"m 757 386 l 757 972 l 799 972 l 799 386 q 766 203 799 296 q 655 47 733 111 q 451 -17 576 -17 q 249 48 326 -17 q 138 205 171 113 q 104 386 104 297 l 104 972 l 146 972 l 146 386 q 178 212 146 296 q 278 74 210 128 q 451 21 347 21 q 624 74 556 21 q 725 212 693 128 q 757 386 757 296 m 372 1125 q 397 1135 386 1125 q 407 1160 407 1146 q 397 1184 407 1174 q 372 1194 386 1194 q 347 1184 357 1194 q 336 1160 336 1174 q 347 1135 336 1146 q 372 1125 357 1125 m 560 1125 q 584 1135 574 1125 q 594 1160 594 1146 q 584 1184 594 1174 q 560 1194 574 1194 q 534 1184 544 1194 q 524 1160 524 1174 q 534 1135 524 1146 q 560 1125 544 1125 "},"Ű":{"ha":903,"x_min":104,"x_max":799,"o":"m 757 386 l 757 972 l 799 972 l 799 386 q 766 203 799 296 q 655 47 733 111 q 451 -17 576 -17 q 249 48 326 -17 q 138 205 171 113 q 104 386 104 297 l 104 972 l 146 972 l 146 386 q 178 212 146 296 q 278 74 210 128 q 451 21 347 21 q 624 74 556 21 q 725 212 693 128 q 757 386 757 296 "},"Ů":{"ha":903,"x_min":104,"x_max":799,"o":"m 757 386 l 757 972 l 799 972 l 799 386 q 766 203 799 296 q 655 47 733 111 q 451 -17 576 -17 q 249 48 326 -17 q 138 205 171 113 q 104 386 104 297 l 104 972 l 146 972 l 146 386 q 178 212 146 296 q 278 74 210 128 q 451 21 347 21 q 624 74 556 21 q 725 212 693 128 q 757 386 757 296 m 450 1085 q 380 1115 403 1085 q 357 1185 357 1144 q 380 1253 357 1224 q 450 1283 403 1283 q 522 1254 499 1283 q 544 1185 544 1225 q 521 1115 544 1144 q 450 1085 497 1085 m 450 1321 q 349 1280 383 1321 q 315 1185 315 1239 q 329 1119 315 1150 q 374 1069 343 1089 q 450 1049 404 1049 q 552 1090 518 1049 q 586 1185 586 1131 q 572 1249 586 1218 q 527 1301 558 1281 q 450 1321 496 1321 "},"V":{"ha":839,"x_min":14,"x_max":825,"o":"m 442 93 l 781 972 l 825 972 l 451 0 l 388 0 l 14 972 l 58 972 l 397 93 q 415 38 410 61 l 424 38 q 442 93 429 61 "},"W":{"ha":1267,"x_min":21,"x_max":1246,"o":"m 950 92 l 1203 972 l 1246 972 l 968 0 l 900 0 l 649 879 q 640 935 642 900 l 626 935 q 618 879 625 900 l 367 0 l 299 0 l 21 972 l 64 972 l 315 94 q 328 38 322 72 l 338 38 q 350 94 343 72 l 601 972 l 665 972 l 917 92 q 929 38 924 65 l 939 38 l 950 92 "},"X":{"ha":822,"x_min":14,"x_max":808,"o":"m 451 490 l 800 972 l 749 972 l 411 504 l 74 972 l 22 972 l 371 490 l 14 0 l 65 0 l 406 467 l 417 467 l 757 0 l 808 0 l 451 490 "},"Y":{"ha":675,"x_min":14,"x_max":661,"o":"m 376 579 l 613 972 l 661 972 l 358 467 l 358 0 l 317 0 l 317 467 l 14 972 l 63 972 l 297 579 q 331 514 315 547 l 344 514 q 376 579 358 547 "},"Ý":{"ha":675,"x_min":14,"x_max":661,"o":"m 376 579 l 613 972 l 661 972 l 358 467 l 358 0 l 317 0 l 317 467 l 14 972 l 63 972 l 297 579 q 331 514 315 547 l 344 514 q 376 579 358 547 m 375 1049 l 449 1194 l 407 1194 l 333 1049 l 375 1049 "},"Ÿ":{"ha":675,"x_min":14,"x_max":661,"o":"m 376 579 l 613 972 l 661 972 l 358 467 l 358 0 l 317 0 l 317 467 l 14 972 l 63 972 l 297 579 q 331 514 315 547 l 344 514 q 376 579 358 547 m 243 1125 q 267 1135 257 1125 q 278 1160 278 1146 q 267 1184 278 1174 q 243 1194 257 1194 q 217 1184 228 1194 q 207 1160 207 1174 q 217 1135 207 1146 q 243 1125 228 1125 m 431 1125 q 455 1135 444 1125 q 465 1160 465 1146 q 455 1184 465 1174 q 431 1194 444 1194 q 405 1184 415 1194 q 394 1160 394 1174 q 405 1135 394 1146 q 431 1125 415 1125 "},"Z":{"ha":790,"x_min":63,"x_max":735,"o":"m 88 47 l 88 38 l 704 38 l 704 0 l 63 0 l 63 57 l 644 861 q 713 924 681 910 l 713 935 l 93 935 l 93 972 l 735 972 l 735 915 l 154 113 q 88 47 118 63 "},"Ž":{"ha":790,"x_min":63,"x_max":735,"o":"m 88 47 l 88 38 l 704 38 l 704 0 l 63 0 l 63 57 l 644 861 q 713 924 681 910 l 713 935 l 93 935 l 93 972 l 735 972 l 735 915 l 154 113 q 88 47 118 63 m 271 1194 l 369 1050 l 432 1050 l 531 1194 l 481 1194 l 407 1088 l 394 1088 l 321 1194 l 271 1194 "},"a":{"ha":704,"x_min":63,"x_max":676,"o":"m 567 433 l 567 350 q 558 260 567 301 q 515 148 546 199 q 432 65 485 97 q 336 25 378 32 q 236 26 294 18 q 143 79 182 35 q 104 182 104 124 q 147 290 104 250 q 254 342 190 331 q 382 367 329 354 q 506 401 461 385 q 567 433 550 417 m 676 0 l 676 38 l 632 38 q 615 44 621 38 q 608 58 608 50 l 608 424 q 572 565 608 503 q 474 660 536 626 q 339 694 413 694 q 203 661 265 694 q 104 571 140 628 q 68 447 68 514 l 110 447 q 140 553 110 504 q 224 629 171 601 q 339 657 276 657 q 446 634 399 657 q 521 574 493 611 q 556 499 549 538 q 540 452 560 469 q 482 422 521 435 l 464 418 q 360 399 442 413 q 289 387 326 393 q 222 374 251 381 q 108 311 154 357 q 63 182 63 265 q 87 88 63 131 q 151 18 111 44 q 236 -14 190 -8 q 349 -10 299 -21 q 443 28 400 0 q 516 99 483 54 q 567 193 549 144 l 581 193 q 571 133 575 165 q 567 71 567 100 q 589 20 567 40 q 640 0 611 0 l 676 0 "},"á":{"ha":704,"x_min":63,"x_max":676,"o":"m 567 433 l 567 350 q 558 260 567 301 q 515 148 546 199 q 432 65 485 97 q 336 25 378 32 q 236 26 294 18 q 143 79 182 35 q 104 182 104 124 q 147 290 104 250 q 254 342 190 331 q 382 367 329 354 q 506 401 461 385 q 567 433 550 417 m 676 0 l 676 38 l 632 38 q 615 44 621 38 q 608 58 608 50 l 608 424 q 572 565 608 503 q 474 660 536 626 q 339 694 413 694 q 203 661 265 694 q 104 571 140 628 q 68 447 68 514 l 110 447 q 140 553 110 504 q 224 629 171 601 q 339 657 276 657 q 446 634 399 657 q 521 574 493 611 q 556 499 549 538 q 540 452 560 469 q 482 422 521 435 l 464 418 q 360 399 442 413 q 289 387 326 393 q 222 374 251 381 q 108 311 154 357 q 63 182 63 265 q 87 88 63 131 q 151 18 111 44 q 236 -14 190 -8 q 349 -10 299 -21 q 443 28 400 0 q 516 99 483 54 q 567 193 549 144 l 581 193 q 571 133 575 165 q 567 71 567 100 q 589 20 567 40 q 640 0 611 0 l 676 0 m 374 826 l 447 972 l 406 972 l 332 826 l 374 826 "},"â":{"ha":704,"x_min":63,"x_max":676,"o":"m 567 433 l 567 350 q 558 260 567 301 q 515 148 546 199 q 432 65 485 97 q 336 25 378 32 q 236 26 294 18 q 143 79 182 35 q 104 182 104 124 q 147 290 104 250 q 254 342 190 331 q 382 367 329 354 q 506 401 461 385 q 567 433 550 417 m 676 0 l 676 38 l 632 38 q 615 44 621 38 q 608 58 608 50 l 608 424 q 572 565 608 503 q 474 660 536 626 q 339 694 413 694 q 203 661 265 694 q 104 571 140 628 q 68 447 68 514 l 110 447 q 140 553 110 504 q 224 629 171 601 q 339 657 276 657 q 446 634 399 657 q 521 574 493 611 q 556 499 549 538 q 540 452 560 469 q 482 422 521 435 l 464 418 q 360 399 442 413 q 289 387 326 393 q 222 374 251 381 q 108 311 154 357 q 63 182 63 265 q 87 88 63 131 q 151 18 111 44 q 236 -14 190 -8 q 349 -10 299 -21 q 443 28 400 0 q 516 99 483 54 q 567 193 549 144 l 581 193 q 571 133 575 165 q 567 71 567 100 q 589 20 567 40 q 640 0 611 0 l 676 0 m 475 828 l 376 972 l 314 972 l 215 828 l 265 828 l 339 935 l 351 935 l 425 828 l 475 828 "},"ä":{"ha":704,"x_min":63,"x_max":676,"o":"m 567 433 l 567 350 q 558 260 567 301 q 515 148 546 199 q 432 65 485 97 q 336 25 378 32 q 236 26 294 18 q 143 79 182 35 q 104 182 104 124 q 147 290 104 250 q 254 342 190 331 q 382 367 329 354 q 506 401 461 385 q 567 433 550 417 m 676 0 l 676 38 l 632 38 q 615 44 621 38 q 608 58 608 50 l 608 424 q 572 565 608 503 q 474 660 536 626 q 339 694 413 694 q 203 661 265 694 q 104 571 140 628 q 68 447 68 514 l 110 447 q 140 553 110 504 q 224 629 171 601 q 339 657 276 657 q 446 634 399 657 q 521 574 493 611 q 556 499 549 538 q 540 452 560 469 q 482 422 521 435 l 464 418 q 360 399 442 413 q 289 387 326 393 q 222 374 251 381 q 108 311 154 357 q 63 182 63 265 q 87 88 63 131 q 151 18 111 44 q 236 -14 190 -8 q 349 -10 299 -21 q 443 28 400 0 q 516 99 483 54 q 567 193 549 144 l 581 193 q 571 133 575 165 q 567 71 567 100 q 589 20 567 40 q 640 0 611 0 l 676 0 m 258 903 q 283 913 272 903 q 293 938 293 924 q 283 962 293 951 q 258 972 272 972 q 233 962 243 972 q 222 938 222 951 q 233 913 222 924 q 258 903 243 903 m 446 903 q 470 913 460 903 q 481 938 481 924 q 470 962 481 951 q 446 972 460 972 q 420 962 431 972 q 410 938 410 951 q 420 913 410 924 q 446 903 431 903 "},"å":{"ha":704,"x_min":63,"x_max":676,"o":"m 567 433 l 567 350 q 558 260 567 301 q 515 148 546 199 q 432 65 485 97 q 336 25 378 32 q 236 26 294 18 q 143 79 182 35 q 104 182 104 124 q 147 290 104 250 q 254 342 190 331 q 382 367 329 354 q 506 401 461 385 q 567 433 550 417 m 676 0 l 676 38 l 632 38 q 615 44 621 38 q 608 58 608 50 l 608 424 q 572 565 608 503 q 474 660 536 626 q 339 694 413 694 q 203 661 265 694 q 104 571 140 628 q 68 447 68 514 l 110 447 q 140 553 110 504 q 224 629 171 601 q 339 657 276 657 q 446 634 399 657 q 521 574 493 611 q 556 499 549 538 q 540 452 560 469 q 482 422 521 435 l 464 418 q 360 399 442 413 q 289 387 326 393 q 222 374 251 381 q 108 311 154 357 q 63 182 63 265 q 87 88 63 131 q 151 18 111 44 q 236 -14 190 -8 q 349 -10 299 -21 q 443 28 400 0 q 516 99 483 54 q 567 193 549 144 l 581 193 q 571 133 575 165 q 567 71 567 100 q 589 20 567 40 q 640 0 611 0 l 676 0 m 331 872 q 260 902 283 872 q 238 972 238 932 q 260 1041 238 1011 q 331 1071 283 1071 q 402 1042 379 1071 q 425 972 425 1013 q 401 902 425 932 q 331 872 378 872 m 331 1108 q 230 1067 264 1108 q 196 972 196 1026 q 210 907 196 938 q 254 856 224 876 q 331 836 285 836 q 433 877 399 836 q 467 972 467 918 q 453 1037 467 1006 q 408 1088 439 1068 q 331 1108 376 1108 "},"b":{"ha":742,"x_min":97,"x_max":686,"o":"m 393 21 q 203 113 267 21 q 139 339 139 204 q 167 497 139 425 q 251 613 194 569 q 393 657 308 657 q 581 565 518 657 q 644 339 644 474 q 581 112 644 203 q 393 21 518 21 m 400 694 q 247 649 310 694 q 149 526 183 604 q 138 497 140 507 l 125 497 q 139 656 139 574 l 139 972 l 97 972 l 97 0 l 139 0 l 139 22 q 125 179 139 103 l 138 179 q 234 36 168 89 q 400 -17 300 -17 q 560 33 496 -17 q 656 163 625 82 q 686 339 686 243 q 655 515 686 435 q 559 645 624 596 q 400 694 494 694 "},"c":{"ha":690,"x_min":56,"x_max":642,"o":"m 599 189 l 642 189 q 541 40 611 97 q 361 -17 471 -17 q 187 35 256 -17 q 87 169 118 88 q 56 340 56 251 q 87 509 56 428 q 187 642 118 590 q 361 694 256 694 q 492 667 435 694 q 585 592 549 639 q 642 488 622 546 l 599 488 q 510 610 569 564 q 361 657 450 657 q 211 610 271 657 q 124 491 151 564 q 97 340 97 418 q 124 187 97 260 q 210 67 151 114 q 361 21 269 21 q 510 67 450 21 q 599 189 569 113 "},"č":{"ha":690,"x_min":56,"x_max":642,"o":"m 599 189 l 642 189 q 541 40 611 97 q 361 -17 471 -17 q 187 35 256 -17 q 87 169 118 88 q 56 340 56 251 q 87 509 56 428 q 187 642 118 590 q 361 694 256 694 q 492 667 435 694 q 585 592 549 639 q 642 488 622 546 l 599 488 q 510 610 569 564 q 361 657 450 657 q 211 610 271 657 q 124 491 151 564 q 97 340 97 418 q 124 187 97 260 q 210 67 151 114 q 361 21 269 21 q 510 67 450 21 q 599 189 569 113 m 219 972 l 318 828 l 381 828 l 479 972 l 429 972 l 356 865 l 343 865 l 269 972 l 219 972 "},"d":{"ha":739,"x_min":56,"x_max":642,"o":"m 97 339 q 160 566 97 475 q 349 657 224 657 q 536 565 472 657 q 600 339 600 474 q 537 113 600 204 q 349 21 474 21 q 160 113 222 21 q 97 339 97 204 m 56 339 q 86 163 56 243 q 181 33 117 82 q 340 -17 244 -17 q 495 28 433 -17 q 589 151 557 74 q 600 179 599 174 l 614 179 q 604 106 608 147 q 600 22 600 64 l 600 0 l 642 0 l 642 972 l 600 972 l 600 656 q 614 497 600 574 l 600 497 q 504 641 569 588 q 340 694 439 694 q 181 645 246 694 q 86 515 117 596 q 56 339 56 435 "},"ď":{"ha":739,"x_min":56,"x_max":822,"o":"m 97 339 q 160 566 97 475 q 349 657 224 657 q 536 565 472 657 q 600 339 600 474 q 537 113 600 204 q 349 21 474 21 q 160 113 222 21 q 97 339 97 204 m 56 339 q 86 163 56 243 q 181 33 117 82 q 340 -17 244 -17 q 495 28 433 -17 q 589 151 557 74 q 600 179 599 174 l 614 179 q 604 106 608 147 q 600 22 600 64 l 600 0 l 642 0 l 642 972 l 600 972 l 600 656 q 614 497 600 574 l 600 497 q 504 641 569 588 q 340 694 439 694 q 181 645 246 694 q 86 515 117 596 q 56 339 56 435 m 817 642 l 822 972 l 781 972 l 788 642 l 817 642 "},"e":{"ha":725,"x_min":56,"x_max":669,"o":"m 360 657 q 505 614 444 657 q 596 505 565 571 q 626 371 626 439 l 96 371 q 131 510 101 444 q 219 616 161 575 q 360 657 276 657 m 96 333 l 669 333 q 635 515 669 433 q 533 646 601 597 q 363 694 464 694 q 189 642 258 694 q 88 510 119 590 q 56 340 56 429 q 88 169 56 251 q 189 35 119 88 q 363 -17 258 -17 q 554 49 478 -17 q 656 228 631 115 l 615 228 q 523 73 586 125 q 360 21 460 21 q 209 66 268 21 q 124 182 150 111 q 96 333 97 253 "},"é":{"ha":725,"x_min":56,"x_max":669,"o":"m 360 657 q 505 614 444 657 q 596 505 565 571 q 626 371 626 439 l 96 371 q 131 510 101 444 q 219 616 161 575 q 360 657 276 657 m 96 333 l 669 333 q 635 515 669 433 q 533 646 601 597 q 363 694 464 694 q 189 642 258 694 q 88 510 119 590 q 56 340 56 429 q 88 169 56 251 q 189 35 119 88 q 363 -17 258 -17 q 554 49 478 -17 q 656 228 631 115 l 615 228 q 523 73 586 125 q 360 21 460 21 q 209 66 268 21 q 124 182 150 111 q 96 333 97 253 m 376 826 l 450 972 l 408 972 l 335 826 l 376 826 "},"ě":{"ha":725,"x_min":56,"x_max":669,"o":"m 360 657 q 505 614 444 657 q 596 505 565 571 q 626 371 626 439 l 96 371 q 131 510 101 444 q 219 616 161 575 q 360 657 276 657 m 96 333 l 669 333 q 635 515 669 433 q 533 646 601 597 q 363 694 464 694 q 189 642 258 694 q 88 510 119 590 q 56 340 56 429 q 88 169 56 251 q 189 35 119 88 q 363 -17 258 -17 q 554 49 478 -17 q 656 228 631 115 l 615 228 q 523 73 586 125 q 360 21 460 21 q 209 66 268 21 q 124 182 150 111 q 96 333 97 253 m 225 972 l 324 828 l 386 828 l 485 972 l 435 972 l 361 865 l 349 865 l 275 972 l 225 972 "},"ê":{"ha":725,"x_min":56,"x_max":669,"o":"m 360 657 q 505 614 444 657 q 596 505 565 571 q 626 371 626 439 l 96 371 q 131 510 101 444 q 219 616 161 575 q 360 657 276 657 m 96 333 l 669 333 q 635 515 669 433 q 533 646 601 597 q 363 694 464 694 q 189 642 258 694 q 88 510 119 590 q 56 340 56 429 q 88 169 56 251 q 189 35 119 88 q 363 -17 258 -17 q 554 49 478 -17 q 656 228 631 115 l 615 228 q 523 73 586 125 q 360 21 460 21 q 209 66 268 21 q 124 182 150 111 q 96 333 97 253 m 494 828 l 396 972 l 333 972 l 235 828 l 285 828 l 358 935 l 371 935 l 444 828 l 494 828 "},"ë":{"ha":725,"x_min":56,"x_max":669,"o":"m 360 657 q 505 614 444 657 q 596 505 565 571 q 626 371 626 439 l 96 371 q 131 510 101 444 q 219 616 161 575 q 360 657 276 657 m 96 333 l 669 333 q 635 515 669 433 q 533 646 601 597 q 363 694 464 694 q 189 642 258 694 q 88 510 119 590 q 56 340 56 429 q 88 169 56 251 q 189 35 119 88 q 363 -17 258 -17 q 554 49 478 -17 q 656 228 631 115 l 615 228 q 523 73 586 125 q 360 21 460 21 q 209 66 268 21 q 124 182 150 111 q 96 333 97 253 m 268 903 q 292 913 282 903 q 303 938 303 924 q 292 962 303 951 q 268 972 282 972 q 242 962 253 972 q 232 938 232 951 q 242 913 232 924 q 268 903 253 903 m 456 903 q 480 913 469 903 q 490 938 490 924 q 480 962 490 951 q 456 972 469 972 q 430 962 440 972 q 419 938 419 951 q 430 913 419 924 q 456 903 440 903 "},"f":{"ha":338,"x_min":21,"x_max":310,"o":"m 96 743 l 96 678 l 21 678 l 21 640 l 96 640 l 96 0 l 138 0 l 138 640 l 307 640 l 307 678 l 138 678 l 138 754 q 174 881 138 826 q 288 935 211 935 l 310 935 l 310 972 l 288 972 q 179 939 222 972 q 116 853 136 906 q 96 743 96 800 "},"g":{"ha":733,"x_min":14,"x_max":706,"o":"m 346 121 q 499 156 432 121 q 602 257 565 192 q 639 407 639 322 q 633 447 639 428 q 614 488 626 465 q 603 507 608 497 q 596 526 599 517 q 544 613 579 575 q 458 673 508 651 q 346 694 407 694 q 192 658 260 694 q 88 557 125 622 q 51 407 51 492 q 94 259 51 325 q 206 157 138 193 q 346 121 275 121 m 346 158 q 215 190 272 158 q 125 278 157 221 q 93 407 93 335 q 125 536 93 479 q 215 625 157 593 q 346 657 272 657 q 476 625 418 657 q 565 536 533 593 q 597 407 597 479 q 565 278 597 335 q 476 190 533 221 q 346 158 418 158 m 360 -367 q 203 -346 272 -367 q 94 -287 133 -325 q 56 -201 56 -250 q 94 -115 56 -153 q 203 -57 133 -78 q 360 -36 272 -36 q 510 -57 440 -36 q 622 -115 581 -78 q 664 -201 664 -153 q 624 -287 664 -250 q 516 -346 585 -325 q 360 -367 447 -367 m 154 -28 l 165 -28 l 165 -40 l 164 -40 q 95 -74 126 -56 q 39 -124 64 -92 q 14 -201 14 -157 q 58 -307 14 -261 q 182 -378 103 -353 q 361 -403 261 -403 q 538 -378 460 -403 q 661 -307 617 -353 q 706 -201 706 -261 q 661 -96 706 -142 q 538 -25 617 -50 q 360 0 460 0 l 165 0 q 115 15 136 0 q 93 60 93 31 q 115 106 93 90 q 165 121 136 121 l 346 121 l 346 149 l 196 169 l 196 149 l 154 149 q 81 126 113 149 q 49 60 49 104 q 81 -6 49 17 q 154 -28 113 -28 m 608 526 l 596 526 l 615 407 l 639 407 l 639 626 q 643 637 639 633 q 654 640 647 640 l 706 640 l 706 678 l 632 678 q 606 667 617 678 q 596 642 596 657 q 608 526 596 604 "},"h":{"ha":747,"x_min":97,"x_max":657,"o":"m 657 392 l 657 0 l 615 0 l 615 376 q 578 564 615 494 q 454 654 542 633 q 319 644 382 672 q 213 551 256 617 q 154 396 171 486 q 143 322 146 360 q 139 231 139 283 l 139 0 l 97 0 l 97 972 l 139 972 l 139 597 q 125 439 139 524 l 138 439 q 200 585 156 521 q 315 679 244 650 q 475 688 386 708 q 577 630 536 672 q 638 526 618 588 q 657 392 657 465 "},"i":{"ha":231,"x_min":25,"x_max":150,"o":"m 136 644 l 136 0 l 94 0 l 94 622 q 89 635 94 629 q 76 640 83 640 l 25 640 l 25 678 l 101 678 q 126 668 115 678 q 136 644 136 658 m 115 903 q 140 913 129 903 q 150 938 150 924 q 140 962 150 951 q 115 972 129 972 q 90 962 100 972 q 79 938 79 951 q 90 913 79 924 q 115 903 100 903 "},"í":{"ha":231,"x_min":25,"x_max":200,"o":"m 126 826 l 200 972 l 158 972 l 85 826 l 126 826 m 136 644 l 136 0 l 94 0 l 94 622 q 89 635 94 629 q 76 640 83 640 l 25 640 l 25 678 l 101 678 q 126 668 115 678 q 136 644 136 658 "},"î":{"ha":231,"x_min":-15,"x_max":244,"o":"m 244 828 l 146 972 l 83 972 l -15 828 l 35 828 l 108 935 l 121 935 l 194 828 l 244 828 m 136 644 l 136 0 l 94 0 l 94 622 q 89 635 94 629 q 76 640 83 640 l 25 640 l 25 678 l 101 678 q 126 668 115 678 q 136 644 136 658 "},"ï":{"ha":231,"x_min":-33,"x_max":225,"o":"m 3 903 q 27 913 17 903 q 38 938 38 924 q 27 962 38 951 q 3 972 17 972 q -23 962 -12 972 q -33 938 -33 951 q -23 913 -33 924 q 3 903 -12 903 m 190 903 q 215 913 204 903 q 225 938 225 924 q 215 962 225 951 q 190 972 204 972 q 165 962 175 972 q 154 938 154 951 q 165 913 154 924 q 190 903 175 903 m 136 644 l 136 0 l 94 0 l 94 622 q 89 635 94 629 q 76 640 83 640 l 25 640 l 25 678 l 101 678 q 126 668 115 678 q 136 644 136 658 "},"j":{"ha":232,"x_min":-76,"x_max":151,"o":"m 138 639 l 138 -194 q 111 -290 138 -246 q 41 -360 85 -333 q -54 -386 -3 -386 l -76 -386 l -76 -349 l -54 -349 q 51 -303 7 -349 q 96 -194 96 -257 l 96 622 q 90 635 96 629 q 78 640 85 640 l 25 640 l 25 678 l 100 678 q 126 666 115 678 q 138 639 138 654 m 117 903 q 141 913 131 903 q 151 938 151 924 q 141 962 151 951 q 117 972 131 972 q 91 962 101 972 q 81 938 81 951 q 91 913 81 924 q 117 903 101 903 "},"k":{"ha":594,"x_min":97,"x_max":581,"o":"m 139 325 l 139 972 l 97 972 l 97 0 l 139 0 l 139 288 l 176 288 l 478 0 l 539 0 l 224 300 l 224 313 l 581 678 l 522 678 l 178 325 l 139 325 "},"l":{"ha":236,"x_min":97,"x_max":139,"o":"m 139 972 l 97 972 l 97 0 l 139 0 l 139 972 "},"ĺ":{"ha":236,"x_min":97,"x_max":218,"o":"m 139 972 l 97 972 l 97 0 l 139 0 l 139 972 m 144 1049 l 218 1194 l 176 1194 l 103 1049 l 144 1049 "},"ľ":{"ha":236,"x_min":97,"x_max":319,"o":"m 139 972 l 97 972 l 97 0 l 139 0 l 139 972 m 314 642 l 319 972 l 278 972 l 285 642 l 314 642 "},"ł":{"ha":236,"x_min":0,"x_max":236,"o":"m 139 972 l 97 972 l 97 0 l 139 0 l 139 972 m 0 426 l 236 538 l 236 578 l 0 467 l 0 426 "},"m":{"ha":1265,"x_min":97,"x_max":1175,"o":"m 1175 417 l 1175 0 l 1133 0 l 1133 403 q 1093 561 1133 493 q 971 649 1053 629 q 832 634 893 667 q 731 537 771 601 q 671 394 690 472 q 657 268 657 335 l 657 0 l 615 0 l 615 403 q 578 563 615 497 q 453 649 542 628 q 315 634 376 667 q 213 537 254 601 q 153 394 172 472 l 151 388 q 142 331 146 358 q 139 268 139 304 l 139 0 l 97 0 l 97 678 l 139 678 l 139 596 q 135 515 139 558 q 125 438 131 472 l 139 438 q 208 585 163 521 q 322 677 254 649 q 474 686 389 706 q 579 624 540 671 q 632 523 618 576 q 642 438 646 469 l 656 438 q 725 585 679 521 q 839 678 771 649 q 992 686 907 707 q 1090 631 1049 672 q 1153 534 1132 590 q 1175 417 1175 478 "},"n":{"ha":747,"x_min":97,"x_max":657,"o":"m 657 392 l 657 0 l 615 0 l 615 376 q 578 564 615 494 q 454 654 542 633 q 319 644 382 672 q 213 551 256 617 q 154 396 171 486 q 139 231 139 317 l 139 0 l 97 0 l 97 678 l 139 678 l 139 597 q 135 517 139 560 q 125 439 131 474 l 138 439 q 200 585 156 521 q 315 679 244 650 q 475 688 386 708 q 577 630 536 672 q 638 526 618 588 q 657 392 657 465 "},"ň":{"ha":747,"x_min":97,"x_max":657,"o":"m 657 392 l 657 0 l 615 0 l 615 376 q 578 564 615 494 q 454 654 542 633 q 319 644 382 672 q 213 551 256 617 q 154 396 171 486 q 139 231 139 317 l 139 0 l 97 0 l 97 678 l 139 678 l 139 597 q 135 517 139 560 q 125 439 131 474 l 138 439 q 200 585 156 521 q 315 679 244 650 q 475 688 386 708 q 577 630 536 672 q 638 526 618 588 q 657 392 657 465 m 246 972 l 344 828 l 407 828 l 506 972 l 456 972 l 382 865 l 369 865 l 296 972 l 246 972 "},"o":{"ha":706,"x_min":56,"x_max":650,"o":"m 353 21 q 208 67 265 21 q 124 187 150 114 q 97 339 97 260 q 124 491 97 418 q 208 610 150 564 q 353 657 265 657 q 498 610 440 657 q 582 491 556 564 q 608 339 608 418 q 582 187 608 260 q 498 67 556 114 q 353 21 440 21 m 353 694 q 183 642 250 694 q 86 509 117 590 q 56 339 56 428 q 86 169 56 250 q 183 35 117 88 q 353 -17 250 -17 q 521 35 454 -17 q 619 169 588 88 q 650 339 650 250 q 619 509 650 428 q 521 642 588 590 q 353 694 454 694 "},"ó":{"ha":706,"x_min":56,"x_max":650,"o":"m 353 21 q 208 67 265 21 q 124 187 150 114 q 97 339 97 260 q 124 491 97 418 q 208 610 150 564 q 353 657 265 657 q 498 610 440 657 q 582 491 556 564 q 608 339 608 418 q 582 187 608 260 q 498 67 556 114 q 353 21 440 21 m 353 694 q 183 642 250 694 q 86 509 117 590 q 56 339 56 428 q 86 169 56 250 q 183 35 117 88 q 353 -17 250 -17 q 521 35 454 -17 q 619 169 588 88 q 650 339 650 250 q 619 509 650 428 q 521 642 588 590 q 353 694 454 694 m 374 826 l 447 972 l 406 972 l 332 826 l 374 826 "},"ô":{"ha":706,"x_min":56,"x_max":650,"o":"m 353 21 q 208 67 265 21 q 124 187 150 114 q 97 339 97 260 q 124 491 97 418 q 208 610 150 564 q 353 657 265 657 q 498 610 440 657 q 582 491 556 564 q 608 339 608 418 q 582 187 608 260 q 498 67 556 114 q 353 21 440 21 m 353 694 q 183 642 250 694 q 86 509 117 590 q 56 339 56 428 q 86 169 56 250 q 183 35 117 88 q 353 -17 250 -17 q 521 35 454 -17 q 619 169 588 88 q 650 339 650 250 q 619 509 650 428 q 521 642 588 590 q 353 694 454 694 m 471 828 l 372 972 l 310 972 l 211 828 l 261 828 l 335 935 l 347 935 l 421 828 l 471 828 "},"ö":{"ha":706,"x_min":56,"x_max":650,"o":"m 353 21 q 208 67 265 21 q 124 187 150 114 q 97 339 97 260 q 124 491 97 418 q 208 610 150 564 q 353 657 265 657 q 498 610 440 657 q 582 491 556 564 q 608 339 608 418 q 582 187 608 260 q 498 67 556 114 q 353 21 440 21 m 353 694 q 183 642 250 694 q 86 509 117 590 q 56 339 56 428 q 86 169 56 250 q 183 35 117 88 q 353 -17 250 -17 q 521 35 454 -17 q 619 169 588 88 q 650 339 650 250 q 619 509 650 428 q 521 642 588 590 q 353 694 454 694 m 257 903 q 281 913 271 903 q 292 938 292 924 q 281 962 292 951 q 257 972 271 972 q 231 962 242 972 q 221 938 221 951 q 231 913 221 924 q 257 903 242 903 m 444 903 q 469 913 458 903 q 479 938 479 924 q 469 962 479 951 q 444 972 458 972 q 419 962 429 972 q 408 938 408 951 q 419 913 408 924 q 444 903 429 903 "},"ő":{"ha":706,"x_min":56,"x_max":650,"o":"m 353 21 q 208 67 265 21 q 124 187 150 114 q 97 339 97 260 q 124 491 97 418 q 208 610 150 564 q 353 657 265 657 q 498 610 440 657 q 582 491 556 564 q 608 339 608 418 q 582 187 608 260 q 498 67 556 114 q 353 21 440 21 m 353 694 q 183 642 250 694 q 86 509 117 590 q 56 339 56 428 q 86 169 56 250 q 183 35 117 88 q 353 -17 250 -17 q 521 35 454 -17 q 619 169 588 88 q 650 339 650 250 q 619 509 650 428 q 521 642 588 590 q 353 694 454 694 "},"ø":{"ha":706,"x_min":56,"x_max":650,"o":"m 353 21 q 208 67 265 21 q 124 187 150 114 q 97 339 97 260 q 124 491 97 418 q 208 610 150 564 q 353 657 265 657 q 498 610 440 657 q 582 491 556 564 q 608 339 608 418 q 582 187 608 260 q 498 67 556 114 q 353 21 440 21 m 353 694 q 183 642 250 694 q 86 509 117 590 q 56 339 56 428 q 86 169 56 250 q 183 35 117 88 q 353 -17 250 -17 q 521 35 454 -17 q 619 169 588 88 q 650 339 650 250 q 619 509 650 428 q 521 642 588 590 q 353 694 454 694 m 138 0 l 619 678 l 568 678 l 86 0 l 138 0 "},"ǿ":{"ha":706,"x_min":56,"x_max":650,"o":"m 353 21 q 208 67 265 21 q 124 187 150 114 q 97 339 97 260 q 124 491 97 418 q 208 610 150 564 q 353 657 265 657 q 498 610 440 657 q 582 491 556 564 q 608 339 608 418 q 582 187 608 260 q 498 67 556 114 q 353 21 440 21 m 353 694 q 183 642 250 694 q 86 509 117 590 q 56 339 56 428 q 86 169 56 250 q 183 35 117 88 q 353 -17 250 -17 q 521 35 454 -17 q 619 169 588 88 q 650 339 650 250 q 619 509 650 428 q 521 642 588 590 q 353 694 454 694 m 138 0 l 619 678 l 568 678 l 86 0 l 138 0 m 371 826 l 444 972 l 403 972 l 329 826 l 371 826 "},"p":{"ha":740,"x_min":97,"x_max":685,"o":"m 643 339 q 616 181 643 253 q 532 65 589 108 q 390 21 475 21 q 203 113 267 21 q 139 339 140 204 q 165 497 138 425 q 249 613 192 569 q 390 657 306 657 q 580 565 517 657 q 643 339 643 474 m 685 339 q 654 515 685 435 q 560 645 624 596 q 400 694 496 694 q 289 674 338 694 q 206 615 240 653 q 149 528 171 578 q 138 499 140 508 l 125 499 q 135 573 131 531 q 139 657 139 615 l 139 678 l 97 678 l 97 -386 l 139 -386 l 139 22 q 125 181 139 104 l 138 181 q 233 38 167 92 q 400 -17 300 -17 q 559 33 494 -17 q 654 163 624 82 q 685 339 685 243 "},"q":{"ha":739,"x_min":56,"x_max":642,"o":"m 350 657 q 537 565 474 657 q 600 339 600 474 q 537 113 600 204 q 350 21 474 21 q 208 65 265 21 q 124 181 151 108 q 97 339 97 253 q 160 565 97 474 q 350 657 224 657 m 340 -17 q 495 30 432 -17 q 590 156 558 76 q 600 181 594 164 l 614 181 q 600 22 600 104 l 600 -386 l 642 -386 l 642 678 l 600 678 l 600 657 q 614 499 600 576 l 600 499 q 506 642 571 589 q 340 694 440 694 q 181 645 244 694 q 86 515 117 596 q 56 339 56 435 q 86 163 56 243 q 181 33 117 82 q 340 -17 246 -17 "},"r":{"ha":417,"x_min":28,"x_max":389,"o":"m 389 678 l 389 640 q 247 601 303 640 q 165 498 190 561 q 139 363 139 435 l 139 0 l 97 0 l 97 626 q 94 637 97 633 q 83 640 90 640 l 28 640 l 28 678 l 103 678 q 128 667 118 678 q 139 642 139 657 q 125 499 139 596 l 138 499 q 188 592 154 553 q 271 653 221 631 q 389 678 321 676 "},"ŕ":{"ha":417,"x_min":28,"x_max":389,"o":"m 389 678 l 389 640 q 247 601 303 640 q 165 498 190 561 q 139 363 139 435 l 139 0 l 97 0 l 97 626 q 94 637 97 633 q 83 640 90 640 l 28 640 l 28 678 l 103 678 q 128 667 118 678 q 139 642 139 657 q 125 499 139 596 l 138 499 q 188 592 154 553 q 271 653 221 631 q 389 678 321 676 m 222 826 l 296 972 l 254 972 l 181 826 l 222 826 "},"ř":{"ha":417,"x_min":28,"x_max":389,"o":"m 389 678 l 389 640 q 247 601 303 640 q 165 498 190 561 q 139 363 139 435 l 139 0 l 97 0 l 97 626 q 94 637 97 633 q 83 640 90 640 l 28 640 l 28 678 l 103 678 q 128 667 118 678 q 139 642 139 657 q 125 499 139 596 l 138 499 q 188 592 154 553 q 271 653 221 631 q 389 678 321 676 m 72 972 l 171 828 l 233 828 l 332 972 l 282 972 l 208 865 l 196 865 l 122 972 l 72 972 "},"s":{"ha":588,"x_min":42,"x_max":525,"o":"m 525 188 q 490 72 525 118 q 399 4 454 25 q 283 -17 343 -17 q 169 4 224 -17 q 78 70 114 25 q 42 185 42 115 l 83 185 q 144 62 85 103 q 283 21 204 21 q 379 38 333 21 q 454 93 425 56 q 483 188 483 131 q 455 279 483 247 q 384 324 426 311 q 271 349 342 338 q 159 372 201 358 q 88 417 117 385 q 58 510 58 450 q 92 615 58 574 q 178 676 126 657 q 289 694 231 694 q 398 676 346 694 q 484 615 450 657 q 518 510 518 574 l 518 499 l 476 499 l 476 510 q 420 620 476 583 q 289 657 364 657 q 157 620 214 657 q 100 510 100 583 q 124 440 100 465 q 185 405 149 415 q 286 383 221 394 q 410 356 363 371 q 492 301 458 340 q 525 188 525 261 "},"š":{"ha":588,"x_min":42,"x_max":525,"o":"m 525 188 q 490 72 525 118 q 399 4 454 25 q 283 -17 343 -17 q 169 4 224 -17 q 78 70 114 25 q 42 185 42 115 l 83 185 q 144 62 85 103 q 283 21 204 21 q 379 38 333 21 q 454 93 425 56 q 483 188 483 131 q 455 279 483 247 q 384 324 426 311 q 271 349 342 338 q 159 372 201 358 q 88 417 117 385 q 58 510 58 450 q 92 615 58 574 q 178 676 126 657 q 289 694 231 694 q 398 676 346 694 q 484 615 450 657 q 518 510 518 574 l 518 499 l 476 499 l 476 510 q 420 620 476 583 q 289 657 364 657 q 157 620 214 657 q 100 510 100 583 q 124 440 100 465 q 185 405 149 415 q 286 383 221 394 q 410 356 363 371 q 492 301 458 340 q 525 188 525 261 m 156 972 l 254 828 l 317 828 l 415 972 l 365 972 l 292 865 l 279 865 l 206 972 l 156 972 "},"t":{"ha":338,"x_min":21,"x_max":310,"o":"m 96 192 l 96 640 l 21 640 l 21 678 l 96 678 l 96 972 l 138 972 l 138 678 l 310 678 l 310 640 l 138 640 l 138 192 q 181 83 138 128 q 288 38 225 38 l 310 38 l 310 0 l 288 0 q 191 25 235 0 q 122 94 147 50 q 96 192 96 139 "},"ť":{"ha":349,"x_min":21,"x_max":319,"o":"m 96 192 l 96 640 l 21 640 l 21 678 l 96 678 l 96 972 l 138 972 l 138 678 l 310 678 l 310 640 l 138 640 l 138 192 q 181 83 138 128 q 288 38 225 38 l 310 38 l 310 0 l 288 0 q 191 25 235 0 q 122 94 147 50 q 96 192 96 139 m 314 864 l 319 1194 l 278 1194 l 285 864 l 314 864 "},"u":{"ha":747,"x_min":90,"x_max":650,"o":"m 90 286 l 90 678 l 132 678 l 132 301 q 169 114 132 183 q 293 24 206 44 q 428 33 365 6 q 534 126 492 61 q 593 282 576 192 q 608 447 608 361 l 608 678 l 650 678 l 650 0 l 608 0 l 608 81 q 613 161 608 118 q 622 239 617 204 l 610 239 q 547 92 592 157 q 432 -1 503 28 q 272 -10 361 -31 q 170 48 211 6 q 110 151 129 90 q 90 286 90 213 "},"ú":{"ha":747,"x_min":90,"x_max":650,"o":"m 90 286 l 90 678 l 132 678 l 132 301 q 169 114 132 183 q 293 24 206 44 q 428 33 365 6 q 534 126 492 61 q 593 282 576 192 q 608 447 608 361 l 608 678 l 650 678 l 650 0 l 608 0 l 608 81 q 613 161 608 118 q 622 239 617 204 l 610 239 q 547 92 592 157 q 432 -1 503 28 q 272 -10 361 -31 q 170 48 211 6 q 110 151 129 90 q 90 286 90 213 m 376 826 l 450 972 l 408 972 l 335 826 l 376 826 "},"û":{"ha":747,"x_min":90,"x_max":650,"o":"m 90 286 l 90 678 l 132 678 l 132 301 q 169 114 132 183 q 293 24 206 44 q 428 33 365 6 q 534 126 492 61 q 593 282 576 192 q 608 447 608 361 l 608 678 l 650 678 l 650 0 l 608 0 l 608 81 q 613 161 608 118 q 622 239 617 204 l 610 239 q 547 92 592 157 q 432 -1 503 28 q 272 -10 361 -31 q 170 48 211 6 q 110 151 129 90 q 90 286 90 213 m 500 828 l 401 972 l 339 972 l 240 828 l 290 828 l 364 935 l 376 935 l 450 828 l 500 828 "},"ü":{"ha":747,"x_min":90,"x_max":650,"o":"m 90 286 l 90 678 l 132 678 l 132 301 q 169 114 132 183 q 293 24 206 44 q 428 33 365 6 q 534 126 492 61 q 593 282 576 192 q 608 447 608 361 l 608 678 l 650 678 l 650 0 l 608 0 l 608 81 q 613 161 608 118 q 622 239 617 204 l 610 239 q 547 92 592 157 q 432 -1 503 28 q 272 -10 361 -31 q 170 48 211 6 q 110 151 129 90 q 90 286 90 213 m 281 903 q 305 913 294 903 q 315 938 315 924 q 305 962 315 951 q 281 972 294 972 q 255 962 265 972 q 244 938 244 951 q 255 913 244 924 q 281 903 265 903 m 468 903 q 492 913 482 903 q 503 938 503 924 q 492 962 503 951 q 468 972 482 972 q 442 962 453 972 q 432 938 432 951 q 442 913 432 924 q 468 903 453 903 "},"ű":{"ha":747,"x_min":90,"x_max":650,"o":"m 90 286 l 90 678 l 132 678 l 132 301 q 169 114 132 183 q 293 24 206 44 q 428 33 365 6 q 534 126 492 61 q 593 282 576 192 q 608 447 608 361 l 608 678 l 650 678 l 650 0 l 608 0 l 608 81 q 613 161 608 118 q 622 239 617 204 l 610 239 q 547 92 592 157 q 432 -1 503 28 q 272 -10 361 -31 q 170 48 211 6 q 110 151 129 90 q 90 286 90 213 "},"ů":{"ha":747,"x_min":90,"x_max":650,"o":"m 90 286 l 90 678 l 132 678 l 132 301 q 169 114 132 183 q 293 24 206 44 q 428 33 365 6 q 534 126 492 61 q 593 282 576 192 q 608 447 608 361 l 608 678 l 650 678 l 650 0 l 608 0 l 608 81 q 613 161 608 118 q 622 239 617 204 l 610 239 q 547 92 592 157 q 432 -1 503 28 q 272 -10 361 -31 q 170 48 211 6 q 110 151 129 90 q 90 286 90 213 m 368 872 q 298 902 321 872 q 275 972 275 932 q 298 1041 275 1011 q 368 1071 321 1071 q 440 1042 417 1071 q 463 972 463 1013 q 439 902 463 932 q 368 872 415 872 m 368 1108 q 267 1067 301 1108 q 233 972 233 1026 q 247 907 233 938 q 292 856 261 876 q 368 836 322 836 q 470 877 436 836 q 504 972 504 918 q 490 1037 504 1006 q 445 1088 476 1068 q 368 1108 414 1108 "},"v":{"ha":633,"x_min":14,"x_max":619,"o":"m 346 114 l 575 678 l 619 678 l 346 0 l 288 0 l 14 678 l 58 678 l 286 114 q 311 38 303 72 l 322 38 q 346 114 329 72 "},"w":{"ha":1025,"x_min":21,"x_max":1004,"o":"m 776 111 l 960 678 l 1004 678 l 783 0 l 721 0 l 536 567 q 518 640 521 615 l 507 640 q 489 567 504 615 l 304 0 l 242 0 l 21 678 l 65 678 l 246 119 q 268 38 264 64 l 278 38 q 300 119 282 64 l 481 678 l 544 678 l 728 111 q 747 38 743 63 l 758 38 q 776 111 761 63 "},"x":{"ha":606,"x_min":14,"x_max":592,"o":"m 343 343 l 586 678 l 535 678 l 303 358 l 71 678 l 19 678 l 263 343 l 14 0 l 65 0 l 297 321 l 308 321 l 540 0 l 592 0 l 343 343 "},"y":{"ha":639,"x_min":14,"x_max":625,"o":"m 361 138 l 581 678 l 625 678 l 257 -231 q 178 -340 232 -293 q 36 -386 124 -386 l 26 -386 l 26 -349 l 36 -349 q 152 -310 108 -349 q 217 -219 196 -272 l 306 0 l 288 0 l 14 678 l 58 678 l 276 138 q 314 38 301 75 l 324 38 q 361 138 336 75 "},"ý":{"ha":639,"x_min":14,"x_max":625,"o":"m 361 138 l 581 678 l 625 678 l 257 -231 q 178 -340 232 -293 q 36 -386 124 -386 l 26 -386 l 26 -349 l 36 -349 q 152 -310 108 -349 q 217 -219 196 -272 l 306 0 l 288 0 l 14 678 l 58 678 l 276 138 q 314 38 301 75 l 324 38 q 361 138 336 75 m 336 826 l 410 972 l 368 972 l 294 826 l 336 826 "},"ÿ":{"ha":639,"x_min":14,"x_max":625,"o":"m 361 138 l 581 678 l 625 678 l 257 -231 q 178 -340 232 -293 q 36 -386 124 -386 l 26 -386 l 26 -349 l 36 -349 q 152 -310 108 -349 q 217 -219 196 -272 l 306 0 l 288 0 l 14 678 l 58 678 l 276 138 q 314 38 301 75 l 324 38 q 361 138 336 75 m 229 903 q 253 913 243 903 q 264 938 264 924 q 253 962 264 951 q 229 972 243 972 q 203 962 214 972 q 193 938 193 951 q 203 913 193 924 q 229 903 214 903 m 417 903 q 441 913 431 903 q 451 938 451 924 q 441 962 451 951 q 417 972 431 972 q 391 962 401 972 q 381 938 381 951 q 391 913 381 924 q 417 903 401 903 "},"z":{"ha":592,"x_min":49,"x_max":543,"o":"m 508 629 l 508 640 l 71 640 l 71 678 l 543 678 l 543 633 q 144 103 344 368 l 135 92 q 105 62 119 75 q 83 49 90 49 l 83 38 l 521 38 l 521 0 l 49 0 l 49 44 q 444 571 247 308 q 481 613 464 596 q 508 629 497 629 "},"ž":{"ha":592,"x_min":49,"x_max":543,"o":"m 508 629 l 508 640 l 71 640 l 71 678 l 543 678 l 543 633 q 144 103 344 368 l 135 92 q 105 62 119 75 q 83 49 90 49 l 83 38 l 521 38 l 521 0 l 49 0 l 49 44 q 444 571 247 308 q 481 613 464 596 q 508 629 497 629 m 169 972 l 268 828 l 331 828 l 429 972 l 379 972 l 306 865 l 293 865 l 219 972 l 169 972 "},".":{"ha":238,"x_min":83,"x_max":154,"o":"m 119 -17 q 144 -6 133 -17 q 154 18 154 4 q 149 35 154 28 q 136 48 144 43 q 119 53 128 53 q 94 42 104 53 q 83 18 83 32 q 94 -6 83 4 q 119 -17 104 -17 "},",":{"ha":264,"x_min":83,"x_max":190,"o":"m 154 18 q 144 -6 154 4 q 119 -17 133 -17 q 94 -6 104 -17 q 83 18 83 4 q 94 42 83 32 q 119 53 104 53 q 144 42 133 53 q 154 18 154 32 m 133 -14 l 119 53 q 175 15 160 53 q 171 -65 190 -24 q 104 -117 151 -107 l 104 -90 q 132 -72 121 -86 q 144 -40 143 -57 q 133 -14 144 -24 "},":":{"ha":265,"x_min":97,"x_max":168,"o":"m 133 -17 q 158 -6 147 -17 q 168 18 168 4 q 163 35 168 28 q 150 48 158 43 q 133 53 142 53 q 108 42 118 53 q 97 18 97 32 q 108 -6 97 4 q 133 -17 118 -17 m 133 625 q 158 635 147 625 q 168 660 168 646 q 163 677 168 669 q 150 690 158 685 q 133 694 142 694 q 108 684 118 694 q 97 660 97 674 q 108 635 97 646 q 133 625 118 625 "},";":{"ha":292,"x_min":97,"x_max":204,"o":"m 133 625 q 158 635 147 625 q 168 660 168 646 q 163 677 168 669 q 150 690 158 685 q 133 694 142 694 q 108 684 118 694 q 97 660 97 674 q 108 635 97 646 q 133 625 118 625 m 168 17 q 158 -8 168 3 q 133 -18 147 -18 q 108 -8 118 -18 q 97 17 97 3 q 108 41 97 31 q 133 51 118 51 q 158 41 147 51 q 168 17 168 31 m 147 -15 l 133 51 q 189 13 174 51 q 185 -67 204 -25 q 118 -118 165 -108 l 118 -92 q 146 -73 135 -87 q 158 -42 157 -58 q 147 -15 158 -25 "},"!":{"ha":238,"x_min":83,"x_max":154,"o":"m 140 972 l 99 972 l 99 213 l 140 213 l 140 972 m 119 -17 q 144 -6 133 -17 q 154 18 154 4 q 149 35 154 28 q 136 48 144 43 q 119 53 128 53 q 94 42 104 53 q 83 18 83 32 q 94 -6 83 4 q 119 -17 104 -17 "},"?":{"ha":678,"x_min":42,"x_max":636,"o":"m 636 731 q 615 622 636 669 q 562 542 593 575 q 476 465 531 510 q 399 396 428 425 q 351 327 371 367 q 332 238 332 288 q 450 250 375 250 l 457 250 l 457 213 l 289 213 q 311 337 289 285 q 366 422 333 389 q 453 500 399 456 q 529 567 501 539 q 576 635 557 594 q 594 731 594 676 q 557 856 594 807 q 461 928 519 906 q 339 951 403 951 q 217 928 275 951 q 121 856 158 906 q 83 731 83 807 q 86 699 83 721 l 44 699 q 42 731 42 721 q 85 878 42 819 q 197 963 129 936 q 339 989 264 989 q 481 963 414 989 q 592 878 549 936 q 636 731 636 819 m 368 -17 q 392 -6 382 -17 q 403 18 403 4 q 392 42 403 32 q 368 53 382 53 q 342 42 353 53 q 332 18 332 32 q 342 -6 332 4 q 368 -17 353 -17 "},"·":{"ha":210,"x_min":69,"x_max":140,"o":"m 106 311 q 130 322 119 311 q 140 346 140 332 q 135 363 140 356 q 122 376 131 371 q 106 381 114 381 q 80 370 90 381 q 69 346 69 360 q 80 322 69 332 q 106 311 90 311 "},"•":{"ha":294,"x_min":69,"x_max":225,"o":"m 149 269 q 185 280 168 269 q 214 308 203 290 q 225 346 225 325 q 214 384 225 367 q 185 412 203 401 q 149 422 168 422 q 110 412 128 422 q 81 384 92 401 q 69 346 69 367 q 81 308 69 325 q 110 280 92 290 q 149 269 128 269 "},"*":{"ha":519,"x_min":42,"x_max":478,"o":"m 281 786 l 281 972 l 239 972 l 239 786 l 56 854 l 42 817 l 229 746 l 117 563 l 153 540 l 260 715 l 367 540 l 403 563 l 290 746 l 478 817 l 464 854 l 281 786 "},"#":{"ha":886,"x_min":63,"x_max":824,"o":"m 736 972 l 693 972 l 504 0 l 547 0 l 736 972 m 385 972 l 342 972 l 153 0 l 196 0 l 385 972 m 781 336 l 63 336 l 63 299 l 781 299 l 781 336 m 824 669 l 106 669 l 106 632 l 824 632 l 824 669 "},"/":{"ha":514,"x_min":0,"x_max":514,"o":"m 44 -251 l 514 972 l 469 972 l 0 -251 l 44 -251 "},"\\":{"ha":514,"x_min":0,"x_max":514,"o":"m 514 -251 l 44 972 l 0 972 l 469 -251 l 514 -251 "},"-":{"ha":642,"x_min":97,"x_max":544,"o":"m 544 381 l 97 381 l 97 343 l 544 343 l 544 381 "},"–":{"ha":835,"x_min":97,"x_max":738,"o":"m 738 381 l 97 381 l 97 343 l 738 343 l 738 381 "},"—":{"ha":1278,"x_min":97,"x_max":1181,"o":"m 1181 381 l 97 381 l 97 343 l 1181 343 l 1181 381 "},"_":{"ha":832,"x_min":97,"x_max":735,"o":"m 735 -17 l 97 -17 l 97 -54 l 735 -54 l 735 -17 "},"(":{"ha":319,"x_min":83,"x_max":319,"o":"m 319 -289 l 268 -289 q 129 6 175 -160 q 83 342 83 171 q 129 678 83 513 q 268 972 175 843 l 319 972 q 173 681 221 847 q 125 342 125 515 q 174 3 125 169 q 319 -289 222 -164 "},")":{"ha":319,"x_min":0,"x_max":236,"o":"m 0 -289 l 51 -289 q 190 6 144 -160 q 236 342 236 171 q 190 678 236 513 q 51 972 144 843 l 0 972 q 147 681 99 847 q 194 342 194 515 q 146 3 194 169 q 0 -289 97 -164 "},"{":{"ha":435,"x_min":69,"x_max":435,"o":"m 122 349 l 122 335 q 179 317 157 335 q 212 273 201 300 q 222 217 222 246 l 222 7 q 244 -117 222 -58 q 313 -213 265 -175 q 435 -251 361 -251 l 435 -289 q 290 -244 347 -289 q 207 -128 233 -199 q 181 18 181 -58 l 181 190 q 153 283 181 243 q 69 322 126 322 l 69 360 q 153 399 126 360 q 181 494 181 439 l 181 668 q 207 813 181 743 q 290 927 233 882 q 435 972 347 972 l 435 935 q 313 897 361 935 q 244 801 265 860 q 222 679 222 743 l 222 469 q 198 385 222 421 q 122 349 174 349 "},"}":{"ha":435,"x_min":0,"x_max":365,"o":"m 313 335 l 313 349 q 256 366 278 349 q 223 410 233 383 q 213 467 213 438 l 213 676 q 191 800 213 742 q 122 897 169 858 q 0 935 74 935 l 0 972 q 144 927 88 972 q 228 812 201 882 q 254 665 254 742 l 254 493 q 281 401 254 440 q 365 361 308 361 l 365 324 q 281 284 308 324 q 254 189 254 244 l 254 15 q 228 -129 254 -60 q 144 -244 201 -199 q 0 -289 88 -289 l 0 -251 q 122 -214 74 -251 q 191 -118 169 -176 q 213 4 213 -60 l 213 214 q 237 299 213 263 q 313 335 261 335 "},"[":{"ha":319,"x_min":69,"x_max":319,"o":"m 111 949 l 111 -264 q 269 -251 194 -251 l 319 -251 l 319 -289 l 69 -289 l 69 972 l 319 972 l 319 935 l 269 935 q 111 949 194 935 "},"]":{"ha":319,"x_min":0,"x_max":250,"o":"m 208 -264 l 208 949 q 50 935 125 935 l 0 935 l 0 972 l 250 972 l 250 -289 l 0 -289 l 0 -251 l 50 -251 q 208 -264 125 -251 "},"„":{"ha":375,"x_min":83,"x_max":301,"o":"m 265 18 q 255 -6 265 4 q 231 -17 244 -17 q 205 -6 215 -17 q 194 18 194 4 q 205 42 194 32 q 231 53 215 53 q 255 42 244 53 q 265 18 265 32 m 244 -14 l 231 53 q 286 15 271 53 q 282 -65 301 -24 q 215 -117 263 -107 l 215 -90 q 243 -72 232 -86 q 255 -40 254 -57 q 244 -14 256 -24 m 154 18 q 144 -6 154 4 q 119 -17 133 -17 q 94 -6 104 -17 q 83 18 83 4 q 94 42 83 32 q 119 53 104 53 q 144 42 133 53 q 154 18 154 32 m 133 -14 l 119 53 q 175 15 160 53 q 171 -65 190 -24 q 104 -117 151 -107 l 104 -90 q 132 -72 121 -86 q 144 -40 143 -57 q 133 -14 144 -24 "},"“":{"ha":374,"x_min":74,"x_max":290,"o":"m 219 954 q 230 978 219 968 q 254 989 240 989 q 280 978 269 989 q 290 954 290 968 q 280 930 290 940 q 254 919 269 919 q 230 930 240 919 q 219 954 219 940 m 240 986 l 254 919 q 199 958 214 919 q 203 1038 183 996 q 269 1089 222 1079 l 269 1063 q 242 1044 253 1058 q 230 1013 231 1029 q 240 986 229 996 m 110 954 q 120 978 110 968 q 144 989 131 989 q 170 978 160 989 q 181 954 181 968 q 170 930 181 940 q 144 919 160 919 q 120 930 131 919 q 110 954 110 940 m 131 986 l 144 919 q 89 958 104 919 q 93 1038 74 996 q 160 1089 113 1079 l 160 1063 q 132 1044 143 1058 q 120 1013 121 1029 q 131 986 119 996 "},"”":{"ha":374,"x_min":83,"x_max":300,"o":"m 264 1090 q 253 1066 264 1076 q 229 1056 243 1056 q 203 1066 214 1056 q 193 1090 193 1076 q 203 1115 193 1104 q 229 1125 214 1125 q 253 1115 243 1125 q 264 1090 264 1104 m 243 1058 l 229 1125 q 285 1087 269 1125 q 281 1007 300 1049 q 214 956 261 965 l 214 982 q 242 1001 231 986 q 253 1032 253 1015 q 243 1058 254 1049 m 154 1090 q 144 1066 154 1076 q 119 1056 133 1056 q 94 1066 104 1056 q 83 1090 83 1076 q 94 1115 83 1104 q 119 1125 104 1125 q 144 1115 133 1125 q 154 1090 154 1104 m 133 1058 l 119 1125 q 175 1087 160 1125 q 171 1007 190 1049 q 104 956 151 965 l 104 982 q 132 1001 121 986 q 144 1032 143 1015 q 133 1058 144 1049 "},"‘":{"ha":264,"x_min":74,"x_max":181,"o":"m 110 954 q 120 978 110 968 q 144 989 131 989 q 170 978 160 989 q 181 954 181 968 q 170 930 181 940 q 144 919 160 919 q 120 930 131 919 q 110 954 110 940 m 131 986 l 144 919 q 89 958 104 919 q 93 1038 74 996 q 160 1089 113 1079 l 160 1063 q 132 1044 143 1058 q 120 1013 121 1029 q 131 986 119 996 "},"’":{"ha":264,"x_min":83,"x_max":190,"o":"m 154 1090 q 144 1066 154 1076 q 119 1056 133 1056 q 94 1066 104 1056 q 83 1090 83 1076 q 94 1115 83 1104 q 119 1125 104 1125 q 144 1115 133 1125 q 154 1090 154 1104 m 133 1058 l 119 1125 q 175 1087 160 1125 q 171 1007 190 1049 q 104 956 151 965 l 104 982 q 132 1001 121 986 q 144 1032 143 1015 q 133 1058 144 1049 "},"«":{"ha":721,"x_min":56,"x_max":665,"o":"m 406 0 l 350 0 l 56 339 l 350 678 l 406 678 l 156 390 q 122 357 138 369 q 99 344 106 344 l 99 332 q 122 320 106 332 q 156 286 138 308 q 406 0 158 285 m 415 286 l 665 0 l 610 0 l 315 339 l 610 678 l 665 678 q 415 390 540 535 q 380 356 396 368 q 357 344 364 344 l 357 332 q 381 320 364 332 q 415 286 397 308 "},"»":{"ha":721,"x_min":56,"x_max":665,"o":"m 371 0 l 315 0 q 565 286 563 285 q 599 320 583 308 q 622 332 615 332 l 622 344 q 599 357 615 344 q 565 390 583 369 l 315 678 l 371 678 l 665 339 l 371 0 m 111 0 l 56 0 l 306 286 q 340 320 324 308 q 364 332 357 332 l 364 344 q 341 356 357 344 q 306 390 325 368 l 56 678 l 111 678 l 406 339 l 111 0 "},"‹":{"ha":460,"x_min":56,"x_max":404,"o":"m 404 0 l 350 0 l 56 339 l 350 678 l 404 678 l 156 390 q 121 357 138 369 q 97 344 104 344 l 97 332 q 121 320 104 332 q 156 286 138 308 q 404 0 158 285 "},"›":{"ha":460,"x_min":56,"x_max":404,"o":"m 110 0 l 56 0 q 304 286 301 285 q 339 320 322 308 q 363 332 356 332 l 363 344 q 339 357 356 344 q 304 390 322 369 l 56 678 l 110 678 l 404 339 l 110 0 "},"\"":{"ha":317,"x_min":56,"x_max":261,"o":"m 92 642 l 97 972 l 56 972 l 63 642 l 92 642 m 254 642 l 261 972 l 219 972 l 225 642 l 254 642 "},"'":{"ha":208,"x_min":83,"x_max":125,"o":"m 119 642 l 125 972 l 83 972 l 90 642 l 119 642 "},"@":{"ha":1314,"x_min":56,"x_max":1258,"o":"m 632 126 q 482 174 542 126 q 394 293 422 221 q 367 444 367 365 q 394 597 367 524 q 481 717 422 669 q 632 764 540 764 q 783 717 724 764 q 869 597 842 669 q 897 444 897 524 q 869 293 897 365 q 782 174 842 221 q 632 126 722 126 m 657 989 q 356 908 493 989 q 137 689 218 826 q 56 388 56 551 q 137 86 56 224 q 356 -133 218 -51 q 657 -214 493 -214 q 849 -183 757 -214 q 1018 -94 940 -151 l 949 -94 q 810 -156 885 -135 q 657 -176 736 -176 q 376 -101 504 -176 q 172 104 247 -25 q 97 388 97 233 q 172 670 97 540 q 376 876 247 800 q 657 951 504 951 q 938 876 810 951 q 1142 670 1067 800 q 1217 388 1217 540 q 1176 218 1217 264 q 1063 172 1135 172 q 975 208 1011 172 q 939 308 939 244 l 939 785 l 897 785 l 897 754 q 911 596 897 681 l 897 596 q 798 744 867 688 q 622 801 729 801 q 453 749 519 801 q 356 615 386 697 q 325 444 325 533 q 356 274 325 356 q 453 141 386 193 q 622 89 519 89 q 798 146 729 89 q 897 294 867 203 l 911 294 q 935 210 911 246 q 996 154 960 174 q 1069 135 1032 135 q 1202 190 1146 135 q 1258 388 1258 246 q 1177 689 1258 551 q 958 908 1096 826 q 657 989 821 989 "},"&":{"ha":903,"x_min":56,"x_max":889,"o":"m 501 113 q 479 85 488 93 q 406 38 449 56 q 321 21 363 21 q 214 47 265 21 q 130 128 163 72 q 97 269 97 185 q 130 409 97 354 q 213 490 163 464 q 321 515 264 515 q 429 465 383 515 l 600 268 q 501 113 551 190 m 889 503 l 889 540 q 785 513 835 540 q 708 440 736 485 l 624 306 q 278 703 451 504 q 240 760 251 733 q 228 813 228 786 q 276 917 228 882 q 390 951 325 951 q 505 917 456 951 q 554 813 554 882 l 596 813 q 565 913 596 874 q 488 971 535 953 q 390 989 442 989 q 292 971 339 989 q 216 913 246 953 q 186 813 186 872 q 205 735 186 768 q 258 661 224 701 l 274 644 q 378 544 318 590 l 368 536 l 354 539 q 338 542 346 540 q 319 543 329 543 q 194 513 254 543 q 94 420 133 483 q 56 261 56 357 q 94 103 56 165 q 194 12 133 40 q 319 -17 254 -17 q 421 1 376 -17 q 494 44 465 18 q 540 96 524 69 l 629 236 l 833 0 l 889 0 l 653 274 l 749 425 q 808 482 771 461 q 889 503 846 503 "},"§":{"ha":622,"x_min":56,"x_max":567,"o":"m 311 340 q 162 378 226 340 q 97 490 97 415 q 162 603 97 567 q 311 640 226 640 q 460 603 396 640 q 525 490 525 567 q 460 378 525 415 q 311 340 396 340 m 311 678 q 185 712 239 678 q 131 815 131 746 q 185 917 131 883 q 311 951 239 951 q 438 917 383 951 q 492 815 492 883 l 492 799 l 533 799 l 533 815 q 501 914 533 875 q 417 971 468 953 q 311 989 367 989 q 205 971 256 989 q 122 914 154 953 q 89 815 89 875 q 106 739 89 774 q 152 684 124 704 q 211 663 181 664 l 211 649 q 153 630 192 649 q 85 575 115 611 q 56 490 56 539 q 98 379 56 421 q 199 320 140 338 q 311 303 258 303 q 438 268 383 303 q 492 163 492 233 q 438 56 492 92 q 311 21 383 21 q 185 56 239 21 q 131 163 131 92 l 131 176 l 89 176 l 89 163 q 122 61 89 101 q 205 2 154 21 q 311 -17 256 -17 q 417 2 367 -17 q 501 61 468 21 q 533 163 533 101 q 516 242 533 207 q 470 298 499 278 q 411 319 442 318 l 411 333 q 469 352 431 333 q 537 406 507 371 q 567 490 567 442 q 497 626 567 574 q 311 678 428 678 "},"©":{"ha":1128,"x_min":56,"x_max":1072,"o":"m 364 488 q 385 367 364 425 q 454 272 407 310 q 574 235 501 235 q 690 269 643 235 q 760 363 736 304 l 804 363 q 757 278 788 315 q 681 219 726 240 q 574 197 635 197 q 431 240 488 197 q 348 349 374 282 q 322 488 322 415 q 348 626 322 560 q 431 734 374 692 q 574 776 488 776 q 681 754 635 776 q 758 694 728 732 q 806 608 789 657 l 761 608 l 761 610 q 691 703 738 668 q 574 739 644 739 q 454 702 501 739 q 385 608 407 665 q 364 488 364 550 m 564 21 q 331 83 438 21 q 160 253 224 146 q 97 486 97 360 q 160 719 97 613 q 331 889 224 826 q 564 951 438 951 q 797 889 690 951 q 967 719 904 826 q 1031 486 1031 613 q 967 253 1031 360 q 797 83 904 146 q 564 21 690 21 m 564 989 q 310 922 426 989 q 124 738 193 854 q 56 486 56 622 q 124 234 56 350 q 310 51 193 118 q 564 -17 426 -17 q 818 51 701 -17 q 1003 234 935 118 q 1072 486 1072 350 q 1003 738 1072 622 q 818 922 935 854 q 564 989 701 989 "},"®":{"ha":647,"x_min":56,"x_max":592,"o":"m 324 492 q 192 526 244 492 q 117 614 140 561 q 93 725 93 667 q 117 836 93 783 q 192 924 140 889 q 324 958 244 958 q 455 924 403 958 q 531 836 507 889 q 556 725 556 783 q 531 614 556 667 q 455 526 507 561 q 324 492 403 492 m 324 989 q 172 950 232 989 q 83 851 111 911 q 56 725 56 792 q 83 599 56 658 q 172 500 111 539 q 324 461 232 461 q 476 500 415 461 q 564 599 536 539 q 592 725 592 658 q 564 851 592 792 q 476 950 536 911 q 324 989 415 989 m 335 756 l 263 756 l 263 847 l 335 847 q 374 836 357 847 q 390 801 390 825 q 374 767 390 778 q 335 756 357 756 m 386 736 l 386 740 q 408 756 399 747 q 422 776 417 764 q 428 804 428 789 q 403 858 428 838 q 336 878 378 878 l 225 878 l 225 582 l 263 582 l 263 725 l 365 725 q 381 719 375 725 q 386 704 386 713 q 386 582 386 643 l 424 582 l 424 699 q 415 726 424 717 q 386 736 406 736 "},"℗":{"ha":646,"x_min":56,"x_max":590,"o":"m 350 749 l 276 749 l 276 840 l 350 840 q 389 829 372 840 q 406 794 406 818 q 389 760 406 771 q 350 749 372 749 m 442 794 q 413 854 442 836 q 350 872 383 872 l 240 872 l 240 575 l 276 575 l 276 718 l 350 718 q 414 737 386 718 q 442 794 442 756 m 322 492 q 191 526 243 492 q 115 614 139 561 q 92 725 92 667 q 115 836 92 783 q 191 924 139 889 q 322 958 243 958 q 454 924 401 958 q 531 836 507 889 q 554 725 554 783 q 531 614 554 667 q 454 526 507 561 q 322 492 401 492 m 322 989 q 171 950 231 989 q 83 851 111 911 q 56 725 56 792 q 83 599 56 658 q 171 500 111 539 q 322 461 231 461 q 474 500 414 461 q 563 599 535 539 q 590 725 590 658 q 563 851 590 792 q 474 950 535 911 q 322 989 414 989 "},"™":{"ha":778,"x_min":35,"x_max":694,"o":"m 306 935 l 306 972 l 35 972 l 35 935 l 150 935 l 150 585 l 192 585 l 192 935 l 306 935 m 694 585 l 694 972 l 653 972 l 503 622 l 497 622 l 347 972 l 306 972 l 306 585 l 347 585 l 347 867 l 468 585 l 532 585 l 653 867 l 653 585 l 694 585 "},"|":{"ha":375,"x_min":167,"x_max":208,"o":"m 208 972 l 167 972 l 167 -289 l 208 -289 l 208 972 "},"$":{"ha":804,"x_min":56,"x_max":742,"o":"m 388 -136 l 388 1110 l 429 1110 l 429 -136 l 388 -136 m 742 258 q 706 124 742 186 q 594 23 671 63 q 399 -17 517 -17 q 203 26 281 -17 q 91 134 126 68 q 56 272 56 200 l 97 272 q 128 152 97 210 q 228 58 160 94 q 400 21 297 21 q 570 55 503 21 q 669 143 638 89 q 700 258 700 197 q 663 368 700 325 q 569 435 626 411 q 436 476 513 460 q 388 486 413 482 l 365 490 q 223 526 281 506 q 124 594 165 546 q 82 729 82 643 q 115 853 82 794 q 221 951 149 913 q 404 989 293 989 q 590 951 517 989 q 697 853 664 913 q 731 729 731 794 l 731 713 l 689 713 l 689 729 q 660 835 689 785 q 567 919 631 886 q 404 951 503 951 q 245 919 308 951 q 153 835 182 886 q 124 729 124 785 q 159 617 124 658 q 243 560 194 576 q 364 529 292 543 l 386 525 l 389 525 q 567 480 496 504 q 690 402 638 456 q 742 258 742 349 "},"€":{"ha":1049,"x_min":42,"x_max":972,"o":"m 929 274 l 972 274 q 891 125 943 190 q 759 22 839 60 q 572 -17 679 -17 q 327 58 424 -17 q 185 247 231 132 q 140 489 140 363 q 185 727 140 613 q 328 915 231 842 q 572 989 425 989 q 759 951 679 989 q 891 848 839 913 q 972 699 943 783 l 929 699 q 799 882 888 813 q 572 951 710 951 q 351 883 439 951 q 222 710 263 815 q 182 489 182 604 q 222 265 182 372 q 351 90 263 158 q 572 21 439 21 q 799 91 710 21 q 929 274 888 161 m 42 556 l 42 593 l 660 593 l 660 556 l 42 556 m 43 379 l 43 417 l 660 417 l 660 379 l 43 379 "},"£":{"ha":789,"x_min":49,"x_max":726,"o":"m 685 67 l 685 136 l 726 136 l 726 67 q 706 19 726 39 q 658 0 686 0 l 49 0 l 49 38 q 194 190 153 100 q 224 372 236 279 q 157 539 211 465 l 49 539 l 49 576 l 142 576 q 130 749 115 651 q 215 917 144 846 q 422 989 286 989 q 575 954 513 989 q 672 863 638 919 q 715 740 706 807 l 674 740 l 671 754 q 590 895 653 839 q 422 951 528 951 q 238 884 299 951 q 169 728 178 817 q 185 576 161 639 l 596 576 l 596 539 l 201 539 q 259 400 240 490 q 248 210 278 310 q 118 38 218 111 l 118 24 q 276 38 201 38 l 654 38 q 676 46 667 38 q 685 67 685 54 "},"¥":{"ha":703,"x_min":28,"x_max":675,"o":"m 390 579 l 626 972 l 675 972 l 372 467 l 372 0 l 331 0 l 331 467 l 28 972 l 76 972 l 311 579 q 344 514 329 547 l 358 514 q 390 579 372 547 m 97 429 l 97 467 l 606 467 l 606 429 l 97 429 m 97 253 l 97 290 l 606 290 l 606 253 l 97 253 "},"+":{"ha":754,"x_min":97,"x_max":657,"o":"m 397 485 l 397 746 l 356 746 l 356 485 l 97 485 l 97 447 l 356 447 l 356 186 l 397 186 l 397 447 l 657 447 l 657 485 l 397 485 "},"−":{"ha":753,"x_min":97,"x_max":656,"o":"m 656 485 l 97 485 l 97 447 l 656 447 l 656 485 "},"×":{"ha":675,"x_min":125,"x_max":550,"o":"m 365 464 l 550 649 l 521 678 l 336 493 l 153 676 l 126 650 l 310 467 l 125 282 l 154 253 l 339 438 l 522 254 l 549 281 l 365 464 "},"÷":{"ha":754,"x_min":97,"x_max":657,"o":"m 657 449 l 97 449 l 97 411 l 657 411 l 657 449 m 378 182 q 402 192 392 182 q 413 217 413 203 q 402 241 413 231 q 378 251 392 251 q 352 241 363 251 q 342 217 342 231 q 352 192 342 203 q 378 182 363 182 m 378 608 q 402 619 392 608 q 413 643 413 629 q 402 667 413 657 q 378 678 392 678 q 352 667 363 678 q 342 643 342 657 q 352 619 342 629 q 378 608 363 608 "},"=":{"ha":754,"x_min":97,"x_max":657,"o":"m 657 358 l 97 358 l 97 321 l 657 321 l 657 358 m 657 611 l 97 611 l 97 574 l 657 574 l 657 611 "},"≠":{"ha":754,"x_min":97,"x_max":657,"o":"m 657 358 l 97 358 l 97 321 l 657 321 l 657 358 m 657 611 l 97 611 l 97 574 l 657 574 l 657 611 m 604 736 l 553 736 l 144 194 l 196 194 l 604 736 "},">":{"ha":754,"x_min":97,"x_max":657,"o":"m 544 425 l 97 243 l 97 199 l 657 425 l 657 483 l 97 710 l 97 665 l 544 483 q 619 460 586 467 l 619 449 q 544 425 586 442 "},"<":{"ha":754,"x_min":97,"x_max":657,"o":"m 657 199 l 657 243 l 210 425 q 135 449 168 442 l 135 460 q 210 483 168 467 l 657 665 l 657 710 l 97 483 l 97 425 l 657 199 "},"≥":{"ha":754,"x_min":97,"x_max":657,"o":"m 656 38 l 97 38 l 97 0 l 656 0 l 656 38 m 544 482 l 97 301 l 97 257 l 657 483 l 657 542 l 97 768 l 97 724 l 544 543 q 619 518 586 526 l 619 507 q 544 482 586 499 "},"≤":{"ha":754,"x_min":97,"x_max":657,"o":"m 97 38 l 657 38 l 657 0 l 97 0 l 97 38 m 657 258 l 657 303 l 210 483 q 135 508 168 500 l 135 519 q 210 544 168 528 l 657 725 l 657 769 l 97 543 l 97 485 l 657 258 "},"±":{"ha":754,"x_min":97,"x_max":657,"o":"m 657 38 l 97 38 l 97 0 l 657 0 l 657 38 m 397 450 l 397 683 l 356 683 l 356 450 l 97 450 l 97 413 l 356 413 l 356 179 l 397 179 l 397 413 l 657 413 l 657 450 l 397 450 "},"≈":{"ha":719,"x_min":97,"x_max":622,"o":"m 581 675 l 622 675 l 622 674 q 613 565 622 608 q 580 497 604 521 q 513 472 556 472 q 440 496 481 472 q 338 564 399 519 q 259 619 290 600 q 207 638 228 638 q 151 597 163 638 q 139 475 139 557 q 139 471 139 474 l 97 471 l 97 472 q 106 583 97 540 q 138 651 114 626 q 206 675 161 675 q 279 651 239 675 q 381 582 319 628 q 461 526 432 544 q 511 508 490 508 q 568 550 556 508 q 581 671 581 592 q 581 675 581 674 m 581 388 l 622 388 l 622 386 q 613 276 622 321 q 580 208 604 232 q 513 183 556 183 q 441 206 481 183 q 338 276 401 229 q 257 332 286 314 q 207 350 228 350 q 151 310 163 350 q 139 188 139 269 q 139 183 139 186 l 97 183 l 97 185 q 106 295 97 251 q 138 363 114 339 q 206 386 161 386 q 279 363 239 386 q 381 293 319 339 q 463 238 435 254 q 511 221 490 221 q 568 262 556 221 q 581 383 581 303 q 581 388 581 386 "},"~":{"ha":718,"x_min":97,"x_max":621,"o":"m 579 565 l 579 569 l 621 569 l 621 568 q 612 458 621 501 q 578 390 603 414 q 511 365 554 365 q 438 390 479 365 q 338 458 397 414 q 253 516 279 500 q 207 532 226 532 q 151 492 163 532 q 139 369 139 451 l 139 365 l 97 365 l 97 367 q 106 478 97 435 q 138 545 114 521 q 206 569 161 569 q 279 546 239 569 q 381 476 319 522 q 461 421 432 439 q 511 403 490 403 q 567 443 556 403 q 579 565 579 483 "},"^":{"ha":661,"x_min":97,"x_max":564,"o":"m 361 1065 l 519 674 l 564 674 l 360 1178 l 301 1178 l 97 674 l 142 674 l 300 1065 q 325 1140 317 1107 l 336 1140 q 361 1065 344 1107 "},"%":{"ha":1178,"x_min":69,"x_max":1108,"o":"m 196 0 l 249 0 l 981 972 l 929 972 l 196 0 m 288 560 q 155 618 199 560 q 111 756 111 676 q 155 892 111 833 q 288 951 199 951 q 419 892 375 951 q 463 756 463 833 q 419 618 463 676 q 288 560 375 560 m 288 989 q 164 955 213 989 q 92 867 115 921 q 69 756 69 814 q 92 644 69 697 q 164 556 115 590 q 288 522 213 522 q 410 556 361 522 q 481 644 458 590 q 504 756 504 697 q 481 867 504 814 q 410 955 458 921 q 288 989 361 989 m 890 22 q 759 81 803 22 q 715 217 715 139 q 759 354 715 296 q 890 413 803 413 q 1023 354 979 413 q 1067 217 1067 296 q 1023 81 1067 139 q 890 22 979 22 m 890 450 q 768 416 817 450 q 697 328 719 382 q 674 217 674 275 q 697 106 674 158 q 768 18 719 53 q 890 -17 817 -17 q 1014 18 965 -17 q 1085 106 1063 53 q 1108 217 1108 158 q 1085 328 1108 275 q 1014 416 1063 382 q 890 450 965 450 "},"¨":{"ha":425,"x_min":83,"x_max":342,"o":"m 119 1125 q 144 1135 133 1125 q 154 1160 154 1146 q 144 1184 154 1174 q 119 1194 133 1194 q 94 1184 104 1194 q 83 1160 83 1174 q 94 1135 83 1146 q 119 1125 104 1125 m 307 1125 q 331 1135 321 1125 q 342 1160 342 1146 q 331 1184 342 1174 q 307 1194 321 1194 q 281 1184 292 1194 q 271 1160 271 1174 q 281 1135 271 1146 q 307 1125 292 1125 "},"˙":{"ha":210,"x_min":69,"x_max":140,"o":"m 106 1125 q 130 1135 119 1125 q 140 1160 140 1146 q 130 1184 140 1174 q 106 1194 119 1194 q 80 1184 90 1194 q 69 1160 69 1174 q 80 1135 69 1146 q 106 1125 90 1125 "},"`":{"ha":233,"x_min":56,"x_max":171,"o":"m 97 1194 l 56 1194 l 129 1049 l 171 1049 l 97 1194 "},"´":{"ha":233,"x_min":63,"x_max":178,"o":"m 104 1049 l 178 1194 l 136 1194 l 63 1049 l 104 1049 "},"˝":{"ha":375,"x_min":58,"x_max":317,"o":"m 243 1049 l 317 1194 l 275 1194 l 201 1049 l 243 1049 m 100 1049 l 174 1194 l 132 1194 l 58 1049 l 100 1049 "},"ˆ":{"ha":371,"x_min":56,"x_max":315,"o":"m 315 1050 l 217 1194 l 154 1194 l 56 1050 l 106 1050 l 179 1157 l 192 1157 l 265 1050 l 315 1050 "},"ˇ":{"ha":371,"x_min":56,"x_max":315,"o":"m 56 1194 l 154 1050 l 217 1050 l 315 1194 l 265 1194 l 192 1088 l 179 1088 l 106 1194 l 56 1194 "},"˘":{"ha":435,"x_min":69,"x_max":365,"o":"m 365 1194 l 324 1194 q 297 1119 324 1151 q 217 1086 271 1086 q 138 1119 164 1086 q 111 1194 111 1151 l 69 1194 q 85 1126 69 1158 q 133 1072 100 1093 q 217 1050 167 1050 q 301 1072 268 1050 q 350 1126 335 1093 q 365 1194 365 1158 "},"˚":{"ha":382,"x_min":56,"x_max":326,"o":"m 190 1085 q 120 1115 143 1085 q 97 1185 97 1144 q 120 1253 97 1224 q 190 1283 143 1283 q 262 1254 239 1283 q 285 1185 285 1225 q 261 1115 285 1144 q 190 1085 238 1085 m 190 1321 q 90 1280 124 1321 q 56 1185 56 1239 q 69 1119 56 1150 q 114 1069 83 1089 q 190 1049 144 1049 q 292 1090 258 1049 q 326 1185 326 1131 q 313 1249 326 1218 q 267 1301 299 1281 q 190 1321 236 1321 "}}}
